<svg version="1.0" xmlns="http://www.w3.org/2000/svg" width="1546.000000pt" height="1988.000000pt" viewBox="0 0 1546.000000 1988.000000" preserveAspectRatio="xMidYMid meet">
<metadata fill="#5c4ff3">
Created by potrace 1.16, written by Peter Selinger 2001-2019
</metadata>
<g transform="translate(0.000000,1988.000000) scale(0.100000,-0.100000)" fill="#5c4ff3" stroke="none">
<path d="M7825 18414 c-11 -2 -45 -9 -75 -15 -128 -24 -192 -45 -317 -100 -244 -108 -460 -161 -653 -162 -109 -1 -131 2 -174 21 -76 35 -268 47 -476 31 -91 -8 -235 -14 -320 -14 l-155 -1 -85 -40 c-47 -23 -109 -49 -139 -59 -79 -26 -193 -79 -256 -120 -30 -19 -76 -45 -102 -59 -27 -13 -106 -71 -176 -127 -302 -245 -393 -309 -497 -349 -47 -18 -239 -140 -320 -203 -68 -53 -142 -127 -188 -187 -15 -19 -39 -48 -54 -65 -16 -16 -28 -33 -28 -37 0 -4 -18 -36 -39 -72 -22 -35 -57 -102 -79 -149 -22 -46 -57 -109 -78 -138 -36 -52 -151 -169 -166 -169 -5 0 -8 -4 -8 -9 0 -5 9 -7 20 -4 18 5 20 0 20 -56 0 -33 -4 -61 -9 -61 -5 0 -11 -9 -14 -20 -3 -11 -13 -20 -24 -20 -27 0 -86 39 -80 53 22 52 23 51 -22 26 -48 -27 -69 -54 -43 -56 35 -2 97 -32 117 -55 70 -85 83 -118 71 -181 -4 -23 -3 -28 4 -17 8 12 10 9 10 -12 0 -15 5 -30 10 -33 6 -4 7 -11 4 -17 -4 -6 0 -15 7 -20 11 -8 11 -11 1 -15 -17 -7 4 -33 26 -33 12 0 13 -3 4 -12 -7 -7 -12 -20 -12 -29 0 -12 -13 -18 -52 -25 l-53 -8 55 -7 c95 -13 120 -21 134 -40 10 -15 26 -19 72 -20 32 -1 64 -7 71 -15 18 -18 16 -58 -5 -96 -20 -35 -36 -88 -27 -88 2 0 16 18 30 40 26 41 45 45 45 9 0 -11 4 -18 9 -15 5 4 19 -10 31 -29 39 -63 16 -94 -145 -197 -60 -38 -139 -92 -175 -118 -36 -27 -100 -73 -142 -102 -43 -29 -78 -57 -78 -62 0 -4 15 3 34 18 19 14 41 26 48 26 8 0 29 11 48 25 19 14 37 25 42 25 11 0 -3 -34 -19 -43 -22 -13 -15 -25 12 -19 14 2 25 1 25 -2 0 -20 -162 -176 -202 -196 -17 -8 -38 -26 -46 -40 l-14 -25 19 23 c13 16 28 23 44 20 34 -4 30 -28 -7 -47 -35 -18 -67 -61 -78 -105 -6 -26 -5 -28 9 -16 8 7 22 27 31 45 16 35 50 51 71 34 10 -9 10 -17 -3 -40 -8 -16 -19 -27 -25 -24 -5 4 -13 -4 -18 -17 -6 -13 -10 -17 -10 -9 -1 18 -41 -16 -41 -35 0 -19 -21 -29 -30 -14 -5 8 -13 -4 -23 -31 -8 -24 -18 -52 -22 -61 -14 -36 11 -16 29 22 23 48 34 50 43 10 3 -16 9 -30 14 -30 11 0 0 -60 -15 -80 -15 -21 -36 -58 -58 -103 -11 -21 -25 -40 -32 -43 -8 -3 -16 -30 -20 -67 -5 -42 -10 -56 -17 -46 -7 11 -9 11 -9 -4 0 -10 -7 -32 -16 -50 -9 -17 -18 -50 -19 -73 -3 -36 -1 -41 15 -37 12 3 19 -3 24 -22 5 -19 11 -25 23 -21 12 5 14 1 8 -21 -9 -32 -9 -34 -7 -90 2 -48 18 -55 47 -23 23 26 35 25 30 -1 -3 -15 0 -19 10 -15 18 6 22 -17 14 -71 -3 -25 -2 -43 4 -43 5 0 7 -26 4 -62 -10 -109 -27 -271 -35 -333 -4 -33 -4 -143 -1 -245 6 -162 10 -196 33 -270 49 -156 58 -215 61 -422 2 -110 8 -205 14 -216 7 -13 18 -18 34 -15 14 3 31 -2 41 -12 9 -10 28 -17 42 -17 13 0 30 -8 37 -18 7 -9 22 -22 34 -29 13 -6 42 -37 65 -69 24 -31 46 -59 49 -62 4 -3 16 -24 28 -47 12 -24 27 -43 34 -43 7 0 23 -9 35 -20 12 -12 22 -18 22 -14 0 4 9 -4 19 -18 11 -14 23 -49 26 -79 4 -30 15 -75 26 -101 10 -26 19 -62 19 -80 0 -18 5 -40 10 -48 7 -11 10 -5 10 23 0 48 23 46 28 -1 2 -18 8 -30 13 -27 8 6 14 -31 9 -64 -1 -10 6 -12 27 -7 l28 7 -25 -20 -25 -20 25 5 c19 4 21 3 10 -5 -12 -8 -12 -12 2 -28 9 -10 23 -40 33 -68 9 -27 27 -71 40 -97 13 -25 20 -50 17 -54 -4 -5 0 -3 9 4 11 8 15 25 13 54 -1 24 4 52 11 64 8 12 10 26 5 34 -5 8 -4 22 1 33 7 12 7 22 0 31 -6 7 -9 15 -6 17 2 3 6 55 8 117 3 90 7 116 22 132 30 33 45 9 45 -72 0 -64 5 -107 31 -273 5 -33 16 -65 24 -71 8 -6 15 -16 15 -22 0 -11 5 -24 45 -116 10 -22 21 -62 25 -90 4 -28 8 -40 10 -26 1 23 3 22 15 -10 13 -35 13 -35 16 40 3 89 4 100 13 121 4 8 2 28 -4 43 -5 15 -6 25 -1 22 5 -3 11 25 14 62 7 93 45 303 58 318 6 7 9 19 7 26 -3 7 1 27 9 45 16 41 16 44 -2 37 -20 -8 -19 2 4 34 20 29 24 79 25 264 0 59 4 104 8 102 12 -8 9 11 -4 24 -9 9 -9 12 0 12 9 0 11 14 8 49 -3 37 -1 51 10 55 18 7 18 24 -1 59 -10 20 -13 55 -10 140 2 61 4 112 5 112 2 0 11 88 14 135 2 25 6 52 9 60 8 23 27 101 32 133 5 32 34 88 53 100 6 4 12 22 12 39 0 30 36 98 53 98 4 0 7 9 7 20 0 11 5 20 10 20 6 0 10 7 10 15 0 9 7 18 15 21 8 4 15 15 15 25 0 10 5 19 10 19 6 0 10 7 10 15 0 8 7 15 15 15 9 0 18 12 21 30 4 16 17 36 30 45 15 10 21 21 17 32 -4 10 -2 14 5 9 11 -6 36 27 27 36 -3 3 2 5 10 5 11 0 12 -4 5 -11 -19 -19 -10 -29 9 -12 11 10 21 30 23 45 2 15 12 30 26 36 12 5 22 13 22 17 0 5 11 18 25 30 32 28 32 39 0 25 -14 -7 -25 -15 -25 -19 0 -5 -7 -8 -15 -8 -8 0 -15 -4 -15 -10 0 -5 -8 -10 -17 -10 -12 0 2 19 42 56 34 32 55 58 48 61 -7 2 -9 11 -6 19 4 11 8 12 13 4 5 -8 9 -7 13 5 4 9 3 13 -3 10 -16 -10 -12 7 7 27 12 14 13 17 2 13 -8 -3 -23 -19 -34 -35 -20 -31 -63 -65 -71 -57 -3 2 10 21 28 40 58 63 86 97 92 113 3 8 10 12 16 9 5 -3 10 -1 10 5 0 6 4 9 9 5 5 -3 21 6 35 20 14 14 29 25 34 25 5 0 12 14 16 32 3 17 18 47 32 66 24 31 25 33 5 23 -11 -7 -21 -16 -21 -21 0 -19 -42 -80 -52 -74 -5 3 -3 16 7 30 14 22 14 24 -2 24 -14 0 -12 4 7 13 14 7 24 21 24 30 -1 9 1 15 5 14 15 -4 50 25 45 37 -3 7 2 16 11 20 9 3 13 2 10 -4 -3 -6 1 -7 10 -4 12 5 13 10 4 20 -6 8 -16 11 -23 7 -6 -3 -3 3 7 14 9 11 17 24 17 30 0 6 10 17 22 25 17 11 22 23 20 47 -2 22 2 31 13 31 8 0 15 4 15 9 0 6 18 20 40 32 22 13 40 26 40 30 0 4 9 7 20 6 11 -1 20 -5 20 -10 0 -5 -9 -11 -20 -14 -11 -3 -20 -9 -20 -14 0 -14 11 -11 46 16 17 13 50 27 73 31 35 6 41 4 41 -11 0 -11 5 -15 15 -11 8 3 15 1 15 -3 0 -5 7 -12 16 -15 14 -5 15 -4 4 9 -17 20 -4 19 47 -6 l43 -21 27 22 c23 18 29 19 41 7 11 -11 11 -19 3 -35 -16 -31 -13 -40 7 -16 20 23 82 49 82 33 0 -5 -10 -13 -22 -18 -12 -4 -17 -10 -12 -14 16 -9 40 -3 58 16 16 16 19 16 45 -4 23 -16 33 -19 48 -10 14 7 23 7 31 -1 7 -7 12 -9 12 -5 0 3 12 2 28 -4 25 -10 212 -31 274 -30 15 0 30 -4 34 -10 4 -6 11 -6 20 2 10 8 14 8 14 0 0 -6 -5 -11 -11 -11 -6 0 -9 -5 -7 -12 5 -14 47 -16 67 -4 7 5 16 5 20 0 3 -5 26 -9 51 -9 25 0 50 -2 55 -6 19 -12 65 -16 65 -6 0 7 4 7 12 -1 7 -7 22 -12 34 -12 12 0 27 -6 33 -14 10 -11 9 -14 -1 -12 -7 1 -18 5 -25 9 -6 4 -14 3 -17 -2 -4 -5 8 -12 25 -16 22 -5 36 -2 50 11 12 11 19 13 19 5 0 -7 6 -11 12 -9 7 3 19 -2 27 -9 10 -10 25 -12 52 -8 23 4 39 3 39 -3 0 -5 7 -12 14 -15 10 -4 13 -1 9 9 -6 16 18 19 33 4 5 -5 38 -11 72 -12 50 -2 62 -6 62 -20 0 -11 6 -15 20 -11 11 3 20 9 20 14 0 5 7 9 17 9 14 0 14 -2 -3 -21 -18 -20 -18 -20 9 -14 17 5 27 3 27 -4 0 -14 37 -15 45 -1 3 6 11 10 16 10 6 0 7 -4 4 -10 -3 -5 3 -10 15 -10 12 0 19 4 15 9 -3 5 -1 12 5 16 5 3 10 1 10 -4 0 -6 6 -11 13 -11 8 0 22 -9 32 -20 10 -11 23 -20 28 -20 5 0 16 -8 24 -17 10 -13 16 -15 19 -5 3 6 10 12 16 12 6 0 16 7 23 17 8 11 18 14 31 8 10 -4 26 -7 33 -6 8 2 21 -5 28 -14 9 -14 21 -16 48 -12 30 5 35 4 25 -7 -6 -8 -20 -12 -30 -9 -12 3 -20 0 -20 -7 0 -7 -8 -10 -20 -7 -21 5 -25 0 -12 -19 9 -16 85 -36 92 -25 3 5 15 11 28 15 17 6 22 3 22 -11 0 -15 2 -16 10 -3 8 12 10 12 10 1 0 -11 3 -11 15 -1 8 6 19 9 25 5 7 -4 30 -9 53 -10 23 -2 55 -8 71 -14 25 -10 27 -13 15 -28 -13 -15 -11 -16 14 -9 15 3 27 2 27 -3 0 -12 41 -11 57 2 9 6 16 1 25 -18 14 -32 55 -55 98 -55 20 0 30 -5 30 -15 0 -9 9 -15 21 -15 12 0 23 -8 26 -20 3 -11 10 -20 15 -20 5 0 7 4 4 8 -2 4 -1 14 5 22 7 13 9 12 9 -2 0 -9 4 -19 9 -22 14 -9 41 4 41 19 0 7 7 18 15 25 9 8 15 9 15 2 0 -6 -5 -14 -10 -17 -8 -5 -8 -11 -1 -19 6 -7 9 -16 6 -20 -3 -3 0 -2 6 3 6 5 19 7 28 4 12 -3 11 -1 -3 11 -11 9 -17 19 -13 22 11 11 36 -22 32 -42 -2 -10 -4 -23 -4 -29 -1 -5 -5 -4 -10 4 -6 9 -8 5 -8 -13 0 -15 3 -29 8 -32 5 -3 9 2 9 10 0 8 10 22 23 31 12 8 21 18 20 20 -2 3 -3 8 -2 13 0 4 5 -2 10 -13 8 -17 9 -16 6 8 -3 15 0 27 4 27 5 0 10 -6 10 -12 1 -7 3 -24 4 -38 2 -14 -2 -31 -7 -37 -7 -9 -7 -13 1 -13 6 0 11 5 11 11 0 7 11 8 32 3 29 -6 31 -5 19 10 -7 9 -21 16 -30 16 -10 0 -17 8 -17 19 0 21 9 19 44 -12 22 -20 22 -20 36 -1 13 16 18 17 36 6 17 -10 21 -10 27 3 3 9 12 14 19 11 7 -3 16 -1 19 4 4 6 1 10 -4 10 -6 0 -11 5 -11 10 0 11 50 -17 62 -35 11 -14 4 -30 -13 -30 -8 0 -20 -6 -28 -13 -12 -12 -16 -11 -23 2 -12 21 -35 20 -40 -1 -4 -15 3 -18 34 -20 21 -2 38 1 38 5 0 12 59 34 75 28 8 -3 15 -1 15 4 0 5 -10 10 -22 12 -15 2 -22 9 -22 21 1 10 -5 17 -16 17 -14 0 -17 5 -12 23 5 18 7 19 10 5 2 -10 9 -18 15 -18 7 -1 26 -7 42 -16 l30 -14 -32 5 c-18 2 -33 0 -33 -5 0 -6 14 -10 30 -10 27 0 35 -9 31 -33 -1 -4 11 -4 25 -1 18 5 25 3 20 -4 -4 -7 4 -7 24 1 43 16 37 25 -13 20 -36 -4 -44 -2 -44 11 0 10 9 16 26 16 l26 1 -30 14 -30 13 28 1 c15 1 30 -5 33 -13 4 -10 18 -12 50 -8 36 4 44 2 44 -11 0 -9 -8 -21 -17 -27 -15 -9 -15 -10 5 -5 13 4 38 0 57 -10 19 -8 45 -15 57 -14 36 3 72 0 66 -7 -3 -3 -25 -7 -48 -9 -24 -3 -45 -7 -48 -10 -6 -5 49 -9 86 -6 13 1 30 -3 38 -10 11 -9 14 -8 14 5 0 9 5 16 10 16 6 0 10 -13 10 -30 0 -22 5 -30 18 -29 10 0 12 3 5 6 -7 2 -13 11 -13 19 0 9 4 13 9 10 5 -4 22 -2 38 4 26 9 27 9 9 -5 -11 -8 -15 -15 -8 -15 7 0 10 -11 6 -32 -4 -25 -3 -29 5 -18 6 9 22 14 42 12 23 -3 30 0 27 10 -3 7 -14 12 -26 11 -11 -1 -23 4 -26 13 -5 12 -1 14 17 9 31 -10 67 -34 67 -45 0 -6 11 -10 24 -10 20 0 23 -4 18 -22 -4 -17 -2 -20 12 -15 13 5 19 1 23 -13 3 -11 10 -20 15 -20 5 0 6 9 3 20 -4 11 -2 20 4 20 6 0 11 -9 11 -20 0 -11 6 -19 13 -17 6 1 11 -4 9 -11 -1 -7 5 -20 14 -29 14 -15 15 -13 9 21 -8 40 3 47 23 16 7 -11 19 -20 27 -20 8 0 15 -4 15 -9 0 -9 -24 -19 -75 -31 -26 -6 -24 -8 18 -9 44 -1 47 -3 37 -20 -5 -11 -20 -21 -32 -23 l-23 -3 23 -7 c14 -4 28 0 39 10 19 19 60 26 68 11 4 -5 -2 -9 -12 -10 -10 0 -13 -3 -5 -6 6 -2 12 -13 12 -23 0 -10 4 -21 10 -25 5 -3 7 -12 3 -20 -3 -9 1 -15 11 -15 9 0 16 4 16 9 0 5 7 11 14 14 10 4 13 1 9 -9 -3 -7 0 -14 6 -14 6 0 11 5 11 10 0 6 5 10 11 10 13 0 39 25 39 38 0 5 -7 15 -15 22 -9 7 -13 15 -10 18 7 7 34 -29 35 -46 0 -7 -7 -20 -15 -28 -23 -23 -19 -37 27 -93 43 -53 71 -70 42 -26 -9 14 -12 25 -6 25 6 0 12 8 14 17 2 13 6 11 15 -10 11 -23 10 -25 -5 -20 -16 7 -16 5 1 -20 20 -30 24 -72 5 -61 -8 5 -9 2 -5 -10 4 -10 7 -21 7 -24 0 -4 4 -1 9 6 6 11 15 9 42 -7 21 -13 28 -21 17 -21 -9 0 -20 5 -23 10 -4 6 -11 8 -16 4 -6 -3 -3 -12 8 -20 15 -11 15 -13 2 -14 -8 0 -20 5 -27 12 -7 7 -12 8 -13 3 0 -6 -5 5 -12 24 -7 19 -18 37 -26 39 -8 3 -11 0 -7 -6 3 -5 -2 -9 -11 -8 -9 0 -18 -5 -21 -12 -3 -9 3 -13 18 -10 13 2 25 -3 28 -11 3 -10 0 -12 -11 -8 -9 3 -19 2 -22 -3 -9 -14 -25 -12 -20 3 7 19 -20 48 -38 41 -9 -3 -23 -20 -32 -37 l-15 -31 25 24 c14 13 28 20 32 15 5 -4 2 -10 -4 -12 -7 -3 -13 -17 -13 -33 0 -16 6 -31 13 -33 7 -3 7 -6 1 -6 -6 -1 -19 8 -29 19 -10 11 -24 20 -30 20 -18 0 -26 25 -12 39 8 8 6 11 -7 11 -16 0 -18 -6 -13 -39 4 -33 2 -38 -13 -34 -10 3 -22 14 -28 26 -6 12 -11 16 -11 9 -1 -7 10 -24 24 -38 14 -14 25 -26 25 -27 0 -9 -76 -2 -82 7 -5 7 -11 8 -15 1 -5 -5 -19 -16 -32 -23 -20 -12 -25 -12 -33 0 -7 10 -11 10 -15 1 -2 -7 -11 -13 -19 -13 -8 0 -14 -8 -15 -17 0 -11 -3 -13 -6 -5 -6 16 -28 15 -43 -3 -9 -10 -9 -15 -1 -15 6 0 11 5 11 12 0 6 9 2 21 -11 12 -12 18 -25 14 -29 -3 -3 -10 0 -15 7 -5 9 -14 11 -26 6 -11 -4 -28 -7 -39 -6 -16 2 -17 0 -5 -8 10 -7 4 -9 -23 -7 -20 2 -34 -1 -31 -5 3 -5 -2 -9 -11 -9 -9 0 -13 -4 -10 -10 3 -5 2 -10 -4 -10 -5 0 -16 -3 -25 -6 -9 -3 -16 -1 -16 5 0 6 7 11 15 11 8 0 15 5 15 10 0 15 -16 12 -30 -5 -7 -8 -17 -15 -22 -15 -5 0 -18 -10 -28 -22 -15 -19 -22 -21 -37 -12 -15 9 -23 8 -38 -3 -19 -14 -19 -15 5 -8 14 4 22 4 18 0 -5 -5 -21 -9 -37 -10 -41 -2 -30 17 26 44 25 12 43 24 40 27 -6 7 -73 -32 -123 -73 -37 -29 -43 -31 -49 -15 -6 14 -8 15 -13 2 -13 -37 -45 -70 -67 -70 -19 0 -23 4 -19 18 5 13 4 14 -4 3 -6 -8 -8 -20 -5 -28 6 -15 -23 -18 -32 -3 -9 15 -42 12 -60 -6 -8 -9 -22 -13 -30 -10 -9 3 -12 0 -8 -10 3 -7 2 -21 -1 -30 -5 -13 -9 -14 -21 -4 -15 12 -20 4 -16 -22 0 -5 -6 -8 -15 -8 -14 0 -14 -3 -4 -15 10 -13 9 -15 -8 -15 -12 0 -20 6 -18 13 1 6 1 9 -1 5 -3 -5 -14 -8 -25 -8 -14 0 -18 -5 -14 -15 5 -15 -26 -39 -37 -28 -4 3 -10 -3 -14 -13 -3 -10 -11 -22 -17 -26 -6 -4 -1 -6 12 -5 12 0 22 5 22 9 0 4 7 8 15 8 7 0 18 8 24 17 5 10 13 14 18 9 4 -4 -11 -25 -34 -46 -24 -21 -43 -40 -43 -43 0 -2 15 -4 33 -3 25 1 31 -3 29 -16 -1 -9 2 -19 8 -23 19 -12 10 -23 -27 -31 -21 -4 -31 -9 -22 -11 10 -2 19 -12 22 -22 6 -24 -41 -49 -54 -29 -7 10 -9 9 -9 -4 0 -10 3 -18 8 -18 4 0 16 -7 27 -16 17 -13 18 -16 5 -24 -12 -8 -9 -10 12 -10 22 0 25 -3 20 -22 -5 -21 -4 -22 11 -9 15 12 17 11 17 -6 0 -24 22 -71 35 -76 6 -2 2 -3 -7 -2 -21 4 -33 -11 -18 -20 5 -3 10 -11 10 -16 0 -6 -4 -7 -10 -4 -5 3 -10 1 -10 -4 0 -6 5 -11 11 -11 5 0 7 -5 3 -11 -3 -6 -1 -15 6 -19 21 -13 4 -39 -21 -33 -20 6 -21 5 -8 -9 7 -9 16 -15 19 -13 3 2 5 -31 6 -72 1 -44 -2 -69 -7 -61 -5 7 -9 8 -9 2 0 -5 5 -15 12 -22 7 -7 9 -12 4 -12 -4 0 2 -12 14 -27 12 -16 17 -29 11 -31 -7 -2 -5 -9 4 -19 8 -8 16 -23 16 -34 3 -46 6 -56 22 -86 9 -18 17 -41 17 -53 0 -11 5 -20 10 -20 6 0 10 -11 10 -25 0 -14 5 -25 10 -25 6 0 10 5 10 11 0 5 5 7 10 4 6 -3 10 -18 10 -32 0 -17 7 -27 20 -30 17 -5 18 -8 8 -21 -11 -13 -9 -14 17 -9 l30 7 -23 -19 c-13 -12 -18 -22 -12 -26 5 -3 10 -2 10 3 0 5 9 12 20 15 23 6 26 -3 8 -22 -11 -11 -10 -13 5 -7 10 3 20 6 22 6 2 0 1 9 -2 20 -7 28 1 25 22 -6 14 -22 15 -28 4 -36 -10 -6 -7 -7 9 -3 24 7 29 -4 10 -23 -9 -9 -8 -12 4 -12 22 0 34 -40 17 -52 -9 -5 -4 -6 14 -2 21 5 27 3 27 -10 0 -22 26 -20 50 4 11 11 16 20 12 20 -4 0 -13 -5 -20 -12 -9 -9 -16 -7 -32 7 -22 20 -27 45 -9 45 7 0 18 -8 25 -17 12 -16 15 -16 24 -3 9 13 13 11 31 -10 19 -22 22 -23 30 -7 6 9 17 17 24 17 8 0 15 5 15 11 0 5 5 7 10 4 8 -5 7 -11 0 -20 -14 -17 -5 -51 15 -58 7 -3 16 1 19 9 3 8 13 14 23 14 15 0 15 -2 -3 -16 -18 -15 -17 -15 13 -10 22 4 33 1 37 -10 4 -10 13 -13 26 -9 11 3 20 2 20 -3 0 -5 13 -12 29 -14 22 -3 28 -1 23 11 -3 9 -1 12 6 7 7 -4 15 -1 18 8 9 23 26 19 19 -4 -4 -14 -2 -20 9 -20 10 0 13 -6 9 -17 -5 -15 -3 -16 8 -5 19 17 39 15 39 -5 0 -28 11 -7 16 29 4 38 -16 75 -34 64 -17 -10 -15 -26 3 -26 8 0 15 -6 15 -14 0 -8 -8 -14 -18 -13 -19 1 -24 32 -8 55 5 8 4 18 -3 25 -6 6 -11 15 -11 19 0 5 25 -16 56 -46 32 -31 61 -53 66 -50 5 3 -4 18 -21 33 -37 33 -39 43 -8 36 12 -4 35 -1 50 4 19 8 27 7 27 0 0 -7 11 -9 25 -7 14 3 25 1 25 -4 0 -5 12 -9 28 -8 42 3 45 1 27 -16 -14 -15 -18 -15 -49 0 -40 19 -56 20 -56 5 0 -5 -5 -7 -11 -3 -8 4 -7 9 2 15 16 10 -1 12 -25 3 -12 -5 -13 -10 -5 -25 5 -10 16 -19 24 -19 7 0 16 -6 18 -12 4 -10 6 -10 6 0 1 6 10 12 22 12 16 0 19 -4 14 -20 -9 -27 5 -25 38 5 25 24 30 25 67 14 26 -8 39 -17 36 -25 -3 -7 6 -20 19 -28 19 -12 23 -13 19 -2 -4 10 2 12 20 9 15 -3 26 -12 26 -22 1 -11 5 -8 15 9 11 20 15 22 19 10 5 -12 17 -14 49 -12 23 3 44 8 48 13 3 5 25 11 50 13 24 2 35 2 24 -1 -33 -8 -38 -20 -11 -25 14 -3 26 -1 26 4 0 5 9 6 20 3 11 -3 20 -2 20 3 0 6 7 13 16 16 14 5 15 4 4 -9 -18 -22 -4 -31 16 -10 10 10 25 14 38 11 11 -3 40 0 66 5 63 15 83 17 97 7 6 -5 14 -5 18 2 3 5 -1 13 -9 16 -35 14 -12 22 51 20 50 -2 76 1 99 15 69 38 74 43 62 56 -22 26 3 26 30 0 16 -15 31 -24 35 -21 4 4 13 1 22 -6 10 -8 15 -9 15 -1 0 18 20 12 21 -6 0 -11 3 -13 6 -5 2 6 19 12 35 12 17 0 28 3 24 7 -6 6 -24 9 -98 16 -15 1 -30 5 -33 9 -9 9 61 28 102 28 17 0 35 5 38 10 3 6 15 10 26 10 17 0 18 -3 9 -20 -6 -12 -8 -31 -4 -43 5 -12 7 -26 6 -30 -1 -5 6 -6 17 -2 22 7 40 -13 21 -25 -19 -12 -2 -30 26 -30 21 0 24 -4 19 -20 -4 -11 -2 -20 4 -20 6 0 11 -4 11 -10 0 -5 -9 -10 -19 -10 -11 0 -22 -6 -24 -12 -4 -10 -6 -10 -6 0 -1 6 -8 12 -16 12 -12 0 -13 -3 -3 -19 9 -15 9 -23 0 -34 -11 -13 -7 -15 25 -15 28 0 33 2 20 9 -20 12 -22 29 -3 29 18 0 49 -47 36 -55 -16 -10 -12 -25 8 -26 14 0 13 -3 -5 -16 -13 -8 -23 -19 -23 -24 0 -14 38 -11 43 4 8 17 8 -34 1 -60 -4 -13 -13 -23 -20 -23 -10 0 -13 -7 -8 -25 5 -19 2 -25 -11 -25 -9 0 -13 -5 -10 -10 5 -8 11 -7 20 0 8 7 18 9 23 6 5 -3 7 5 5 18 -6 30 9 39 33 21 10 -8 14 -15 7 -15 -7 0 -19 -17 -28 -37 -9 -21 -23 -52 -32 -69 -12 -25 -13 -36 -3 -54 16 -30 6 -50 -25 -50 -15 0 -24 -4 -20 -10 3 -5 17 -10 31 -10 13 0 24 -4 24 -10 0 -5 -11 -10 -25 -10 -14 0 -25 -4 -25 -10 0 -5 9 -10 20 -10 11 0 20 -5 20 -11 0 -6 -7 -8 -16 -5 -11 4 -18 -1 -21 -14 -4 -15 -11 -18 -29 -14 -18 5 -24 2 -24 -10 0 -9 -5 -16 -10 -16 -7 0 -7 -6 0 -19 5 -11 7 -27 4 -35 -4 -12 0 -16 15 -16 12 0 21 -5 21 -11 0 -7 -11 -9 -27 -5 -16 3 -22 3 -15 0 15 -7 16 -34 1 -34 -6 0 -9 -12 -7 -27 2 -22 -1 -28 -14 -27 -10 1 -18 -2 -18 -7 0 -5 9 -9 20 -9 11 0 20 -7 20 -15 0 -8 -5 -15 -11 -15 -5 0 -7 -5 -3 -11 4 -8 0 -9 -15 -4 -16 5 -20 3 -15 -9 3 -9 11 -13 18 -9 6 3 3 -2 -6 -13 -12 -13 -14 -24 -8 -34 8 -13 10 -12 10 3 0 9 5 17 10 17 18 0 10 -20 -19 -46 -16 -14 -27 -32 -25 -39 3 -7 0 -16 -5 -20 -6 -3 -9 -10 -7 -14 3 -3 -4 -7 -15 -7 -22 0 -25 16 -7 34 18 18 -12 15 -36 -3 -18 -13 -17 -15 10 -40 16 -14 22 -24 14 -23 -8 2 -14 -3 -12 -9 4 -23 -15 -14 -22 10 -6 21 -7 21 -20 5 -7 -10 -20 -18 -29 -18 -24 0 -29 -17 -7 -23 10 -3 21 0 23 7 2 6 8 8 12 4 4 -4 2 -14 -4 -22 -10 -12 -17 -13 -45 -1 -20 9 -37 10 -47 4 -10 -6 -7 -9 14 -9 15 0 27 -4 27 -9 0 -6 -12 -9 -27 -8 -18 1 -30 -5 -37 -19 -9 -17 -16 -19 -39 -11 -22 7 -25 12 -17 23 7 7 9 18 5 24 -3 5 -2 10 3 10 6 0 5 10 -1 24 -8 16 -14 21 -19 13 -11 -17 -10 -29 2 -22 22 14 8 -14 -15 -29 -14 -9 -25 -12 -25 -6 0 5 -7 10 -15 10 -8 0 -15 -4 -15 -10 0 -5 -7 -10 -16 -10 -9 0 -12 -5 -8 -11 5 -8 -3 -10 -28 -5 -31 6 -36 3 -46 -20 -9 -19 -17 -24 -35 -20 -12 3 -16 3 -9 0 21 -10 13 -26 -9 -19 -18 6 -20 4 -14 -14 7 -22 -10 -30 -18 -8 -4 9 -8 8 -16 -3 -8 -12 -14 -11 -35 9 -13 13 -31 21 -38 18 -9 -4 -8 -6 3 -6 28 -2 30 -27 3 -29 -13 -1 -24 3 -24 10 0 6 -2 9 -5 6 -9 -9 20 -58 33 -53 6 2 12 0 12 -4 0 -5 3 -16 6 -25 3 -9 1 -16 -5 -16 -6 0 -11 5 -11 10 0 6 -10 20 -21 31 -17 17 -23 19 -31 8 -6 -10 -7 -7 -3 9 8 28 -6 29 -24 1 -11 -18 -11 -23 0 -30 22 -13 2 -22 -21 -9 -12 6 -24 9 -27 6 -4 -3 8 -11 25 -17 44 -15 40 -24 -12 -24 -24 0 -42 -3 -40 -7 3 -4 -1 -5 -9 -2 -8 3 -19 16 -25 30 -7 13 -19 24 -28 24 -9 0 -14 6 -11 13 3 8 -1 14 -9 14 -8 0 -14 -9 -14 -19 0 -10 3 -17 8 -16 15 3 42 -15 42 -28 0 -19 -9 -18 -33 4 -19 16 -20 16 -14 0 4 -10 2 -18 -4 -18 -6 0 -13 8 -16 19 -4 18 -6 18 -27 -3 -23 -22 -25 -39 -3 -31 16 6 28 -4 50 -37 21 -33 21 -38 2 -38 -8 0 -15 -4 -15 -10 0 -5 -7 -10 -15 -10 -8 0 -15 5 -15 10 0 6 7 10 16 10 27 0 13 44 -16 48 -14 2 -32 11 -42 19 -14 13 -19 13 -44 -4 -16 -10 -25 -12 -20 -5 4 7 2 19 -4 27 -9 11 -9 15 -1 15 6 0 11 -4 11 -10 0 -5 5 -10 10 -10 6 0 10 9 10 20 0 22 -24 27 -37 8 -4 -7 -6 -21 -5 -30 4 -20 -14 -25 -21 -5 -2 6 -8 8 -13 4 -5 -4 -2 -12 5 -16 9 -6 10 -11 2 -15 -6 -4 -9 -11 -6 -16 3 -5 1 -11 -5 -15 -6 -4 -10 5 -10 20 0 14 -4 24 -10 20 -5 -3 -8 -11 -6 -18 1 -7 1 -9 -1 -4 -3 4 -11 7 -19 7 -17 0 -19 17 -1 23 6 2 10 7 7 10 -3 3 -14 -2 -25 -10 -14 -11 -16 -17 -7 -20 17 -6 15 -23 -2 -23 -8 0 -18 9 -21 21 -9 27 -16 20 -8 -9 4 -17 13 -22 40 -22 19 0 32 -4 29 -9 -3 -5 4 -11 15 -14 12 -3 18 -10 14 -16 -9 -15 18 -14 33 1 9 9 12 9 12 0 0 -7 -4 -12 -10 -12 -5 0 -10 -7 -10 -16 0 -11 6 -15 20 -11 13 3 20 0 20 -9 0 -21 -18 -17 -67 16 -40 27 -63 32 -63 12 0 -10 68 -52 84 -52 8 0 18 -5 22 -11 4 -8 -3 -9 -25 -4 -20 4 -31 3 -31 -4 0 -6 5 -11 12 -11 6 0 9 -2 6 -5 -3 -3 -16 -1 -29 3 -17 7 -31 5 -46 -5 -19 -13 -23 -12 -37 8 -8 13 -19 19 -23 15 -5 -4 1 -15 13 -25 11 -9 19 -23 16 -31 -2 -8 2 -6 11 5 8 11 19 17 23 13 4 -4 14 -2 22 4 11 10 17 8 28 -7 7 -11 18 -25 24 -32 13 -15 13 -23 0 -23 -6 0 -17 14 -24 31 -10 23 -15 27 -19 15 -4 -9 -12 -13 -20 -10 -8 3 -19 -2 -26 -10 -16 -19 -56 -2 -47 20 3 8 0 14 -7 14 -7 0 -23 9 -35 20 -26 24 -31 25 -47 3 -9 -13 -10 -23 -3 -36 7 -13 6 -23 -1 -30 -7 -7 -12 -5 -17 7 -4 11 -13 15 -27 10 -16 -5 -19 -3 -14 10 4 10 3 14 -2 11 -5 -3 -12 -1 -16 5 -3 6 -26 8 -49 6 -34 -3 -46 0 -57 15 -9 12 -26 19 -49 19 -29 0 -42 8 -82 52 -49 53 -59 72 -33 62 8 -4 15 -10 15 -15 0 -5 7 -9 15 -9 8 0 15 7 15 15 0 8 8 15 18 16 14 0 14 2 -3 9 -18 8 -18 9 5 9 l25 1 -24 13 c-14 6 -26 19 -28 27 -3 9 -1 11 4 4 27 -35 78 -11 55 26 -9 15 -9 21 0 26 7 4 14 2 16 -4 5 -17 32 -15 32 2 0 8 -8 16 -17 18 -13 2 -11 6 10 15 23 11 25 10 20 -4 -5 -14 0 -12 24 5 32 23 59 29 48 12 -3 -5 -1 -10 4 -10 15 0 14 17 -1 27 -15 9 -41 53 -32 53 3 0 12 -6 19 -12 40 -36 41 -36 41 -2 0 25 -5 34 -20 36 -27 4 -33 28 -7 28 14 0 21 6 21 20 0 11 6 20 13 21 6 1 1 5 -13 9 -23 7 -23 8 -3 9 32 2 53 12 53 26 0 7 7 15 15 19 8 3 15 12 15 20 0 10 -6 13 -15 10 -9 -4 -15 0 -15 10 0 10 9 16 23 17 20 0 20 1 3 8 -26 10 -30 41 -5 41 25 0 24 16 -1 23 -12 3 -24 -1 -29 -11 -5 -9 -12 -14 -16 -11 -3 4 6 17 20 30 30 29 34 55 6 39 -28 -14 -39 -12 -18 4 17 13 16 15 -12 32 -33 20 -56 60 -40 70 14 8 -15 39 -52 54 -16 7 -29 17 -29 22 0 6 7 5 15 -2 23 -19 30 -4 11 25 -9 14 -14 29 -11 34 2 5 -2 11 -9 14 -8 3 -16 1 -19 -6 -2 -6 -6 -2 -9 10 -4 14 -1 24 8 27 8 3 14 1 14 -4 0 -6 5 -10 10 -10 16 0 -23 49 -38 50 -7 0 -10 5 -7 10 3 6 0 10 -8 10 -22 0 -54 40 -39 49 7 4 10 15 6 24 -3 9 -10 15 -15 12 -10 -7 -49 16 -49 29 0 4 7 3 15 -4 9 -7 18 -10 22 -6 4 3 -2 12 -12 20 -12 9 -19 26 -19 49 0 33 -1 34 -16 17 -13 -15 -19 -16 -36 -7 -12 7 -19 17 -17 24 2 6 -1 14 -6 18 -6 3 -11 13 -11 21 0 9 -7 23 -16 31 -9 9 -14 26 -11 40 3 15 -1 23 -9 23 -8 0 -14 7 -14 15 0 17 -74 95 -90 95 -15 0 -12 -21 6 -41 15 -16 14 -17 -5 -12 -12 3 -24 9 -27 14 -9 15 -24 10 -24 -7 0 -9 5 -12 12 -8 8 5 9 0 5 -16 -3 -13 -2 -29 4 -36 6 -8 4 -15 -6 -24 -8 -7 -15 -18 -15 -25 0 -8 -6 -15 -12 -18 -7 -2 -9 -8 -5 -13 5 -5 15 0 24 11 16 20 15 16 -4 -32 -4 -11 -3 -14 5 -9 8 5 12 -4 12 -28 0 -23 5 -36 13 -36 15 0 41 -65 32 -79 -3 -5 0 -13 6 -16 9 -6 49 -88 49 -101 0 -2 -7 -4 -16 -4 -13 0 -14 -3 -5 -13 6 -8 8 -17 4 -20 -3 -4 -1 -7 5 -7 7 0 12 5 12 12 0 9 3 9 12 0 9 -9 9 -15 0 -24 -19 -19 -14 -29 8 -16 11 7 20 19 20 27 0 11 4 11 18 -2 10 -9 33 -18 50 -20 34 -4 85 -44 76 -58 -3 -5 0 -9 5 -9 6 0 11 -6 11 -14 0 -8 7 -16 14 -19 8 -3 18 -22 22 -41 3 -20 9 -36 13 -36 6 0 7 -22 2 -68 0 -7 -6 -10 -11 -7 -6 4 -8 11 -5 16 4 5 1 9 -4 9 -6 0 -11 -4 -11 -9 0 -18 -33 -21 -52 -4 -15 14 -24 15 -47 6 -30 -11 -61 2 -61 27 0 8 -8 10 -25 6 -18 -5 -27 -2 -32 9 -3 9 -11 14 -17 12 -16 -7 -50 19 -37 28 6 3 11 15 11 26 0 11 5 17 10 14 6 -3 10 -2 10 4 0 5 -4 13 -10 16 -5 3 -10 17 -10 31 0 15 -6 24 -15 24 -8 0 -15 -7 -15 -16 0 -9 -5 -12 -12 -8 -7 5 -1 16 19 34 26 23 28 29 17 45 -7 10 -20 15 -29 12 -23 -9 -18 -27 8 -27 20 0 20 -1 -6 -15 -25 -13 -31 -13 -52 1 -13 9 -28 13 -34 10 -5 -3 -7 2 -4 13 3 11 -2 21 -11 24 -11 4 -13 1 -9 -10 5 -13 3 -14 -12 -5 -22 12 -65 -4 -65 -24 0 -7 -16 -22 -35 -34 -36 -22 -43 -34 -25 -45 15 -9 -12 -33 -32 -30 -9 2 -29 -8 -45 -22 -15 -14 -21 -23 -11 -20 9 3 18 3 21 0 7 -6 -30 -43 -43 -43 -5 0 -10 -4 -10 -10 0 -5 4 -10 9 -10 6 0 9 -9 8 -20 -1 -11 -6 -20 -12 -20 -5 0 -15 -11 -22 -25 -6 -14 -7 -25 -2 -25 5 0 9 -9 9 -20 0 -11 -4 -20 -9 -20 -8 0 -22 -32 -25 -55 -1 -5 -9 -16 -19 -23 -9 -7 -24 -27 -33 -45 -17 -32 -89 -107 -104 -107 -4 0 -3 -11 3 -24 9 -18 15 -22 24 -14 10 8 13 6 13 -6 0 -9 8 -16 18 -17 11 -1 9 -4 -8 -9 -17 -5 -19 -8 -7 -9 9 -1 17 -8 17 -17 0 -14 -3 -14 -15 -4 -12 10 -15 10 -15 -2 0 -8 5 -19 11 -25 18 -18 1 -37 -19 -21 -13 11 -15 10 -10 -8 4 -18 1 -20 -21 -17 -15 3 -21 1 -15 -4 20 -15 25 -43 7 -43 -9 0 -14 3 -10 6 8 9 -21 37 -32 30 -4 -3 -6 -18 -4 -33 4 -22 2 -25 -6 -13 -9 12 -11 11 -11 -7 0 -49 -45 -6 -56 54 -6 32 -34 47 -34 18 0 -9 -6 -12 -15 -9 -21 8 0 34 27 34 17 0 18 3 9 14 -16 19 -50 17 -76 -3 -45 -36 -61 -40 -84 -25 -23 16 -29 6 -8 -16 6 -7 0 -5 -15 6 -15 10 -28 23 -28 28 0 5 -7 3 -15 -4 -18 -15 -19 -7 -4 22 9 17 8 19 -8 16 -10 -2 -19 -9 -19 -16 -1 -6 -2 -17 -3 -23 0 -5 -5 -8 -10 -4 -6 3 -8 14 -6 24 4 24 -26 18 -51 -10 -9 -10 -21 -19 -26 -19 -14 0 -9 28 7 34 8 3 15 12 15 21 0 8 4 15 9 15 5 0 11 7 15 15 9 23 -10 18 -43 -13 -70 -65 -81 -73 -90 -68 -5 4 -9 -2 -9 -11 1 -24 -19 -73 -30 -73 -19 0 -20 13 -2 43 22 36 7 57 -21 31 -14 -12 -22 -13 -39 -4 -17 9 -21 9 -19 -2 4 -33 -1 -40 -17 -24 -14 15 -14 18 8 36 l23 19 -23 1 c-13 0 -21 -4 -17 -9 3 -6 -3 -15 -14 -21 -21 -11 -21 -32 0 -72 11 -20 10 -21 -3 -11 -8 7 -19 9 -23 5 -5 -4 -5 -1 -1 6 4 7 1 12 -8 12 -9 0 -18 -10 -21 -23 -4 -13 -15 -28 -26 -35 -26 -16 -24 -1 3 22 19 17 20 19 4 28 -21 12 -44 -1 -25 -13 9 -5 10 -9 2 -9 -6 0 -16 -14 -22 -31 -14 -40 -14 -42 1 -33 7 5 9 2 6 -8 -4 -8 4 -27 18 -43 25 -29 23 -56 -2 -30 -9 8 -21 15 -27 15 -7 -1 -1 -10 12 -21 21 -17 22 -22 10 -30 -7 -5 -10 -9 -5 -9 5 0 19 8 30 18 20 17 20 17 3 -11 -18 -28 -8 -38 13 -12 7 8 17 12 22 9 5 -3 12 3 15 15 3 11 10 18 15 15 5 -3 7 -13 4 -23 -5 -12 -2 -11 9 3 15 19 15 19 15 -2 0 -22 24 -30 35 -12 3 5 0 8 -7 7 -7 -2 -9 -2 -5 1 4 2 3 10 -4 18 -22 27 4 14 27 -14 22 -25 24 -26 24 -6 0 16 6 22 23 22 30 0 51 5 58 15 4 5 21 1 39 -8 18 -9 41 -15 51 -12 11 3 22 1 25 -5 3 -5 13 -7 21 -3 9 3 34 -3 57 -13 67 -31 228 -61 271 -52 22 5 66 0 61 -8 -2 -4 13 -6 35 -4 25 3 39 0 39 -8 0 -14 25 -41 34 -35 3 3 2 0 -3 -7 -8 -8 -14 -8 -26 2 -14 11 -19 7 -16 -12 0 -4 -11 -3 -25 3 -15 5 -29 7 -32 4 -3 -3 0 -5 6 -5 7 0 12 -5 12 -11 0 -5 -12 -9 -27 -8 -53 4 -73 -1 -73 -18 0 -15 -2 -15 -17 0 -23 19 -77 12 -69 -10 5 -12 -1 -13 -27 -8 -24 5 -28 4 -17 -4 8 -6 29 -11 46 -11 23 0 34 -6 42 -25 12 -25 11 -25 -12 -10 -14 10 -27 12 -30 6 -7 -10 -31 -9 -42 2 -10 10 -24 9 -24 -2 0 -7 25 -19 52 -25 20 -4 15 -17 -17 -44 -40 -36 -43 -42 -15 -35 11 3 20 0 20 -6 0 -5 7 -8 15 -5 10 4 15 0 15 -11 0 -11 -5 -15 -15 -11 -8 3 -22 9 -32 13 -10 4 -14 3 -9 -5 3 -6 -2 -16 -11 -22 -14 -8 -12 -9 12 -4 l29 7 -28 -28 c-19 -19 -30 -24 -35 -16 -4 6 -32 14 -62 16 -41 4 -48 2 -29 -5 19 -7 15 -8 -20 -3 -25 3 -46 9 -48 14 -7 19 -41 53 -42 42 0 -7 -6 -10 -13 -7 -7 2 -23 -7 -36 -20 -18 -19 -30 -24 -52 -19 -17 3 -29 1 -29 -5 0 -5 -11 -12 -25 -14 -25 -5 -35 7 -12 15 6 2 9 8 5 12 -5 5 -18 0 -29 -11 -16 -14 -23 -15 -26 -6 -6 16 -65 16 -82 0 -10 -11 -12 -10 -9 2 2 11 -6 15 -29 15 -17 0 -35 3 -39 8 -13 12 -34 8 -28 -6 3 -8 -2 -20 -11 -27 -10 -8 -15 -9 -15 -1 0 6 5 11 11 11 8 0 8 5 -1 15 -9 11 -16 12 -25 5 -9 -8 -15 -8 -20 0 -3 5 -15 10 -25 10 -12 0 -17 6 -16 18 2 9 -2 20 -8 24 -16 11 51 70 72 64 11 -4 23 2 32 16 21 31 46 55 61 60 7 2 9 9 5 17 -10 15 -118 7 -174 -13 -21 -7 -62 -19 -92 -26 -30 -7 -64 -17 -75 -23 -11 -6 -22 -12 -25 -13 -3 0 -12 -3 -20 -6 -36 -14 -105 -26 -114 -20 -6 3 -19 7 -28 7 -12 1 -15 -2 -8 -10 7 -9 -1 -12 -32 -13 -31 -2 -48 4 -65 20 -23 21 -23 21 -44 2 -43 -38 23 63 70 109 25 23 39 34 32 25 -17 -23 -3 -23 21 -1 10 9 18 11 18 6 0 -18 -48 -45 -53 -30 -3 7 -8 4 -12 -8 -5 -11 -16 -28 -27 -38 -10 -10 -18 -23 -18 -29 0 -6 12 4 28 23 15 19 32 34 39 34 18 0 84 65 78 76 -4 5 1 6 9 3 9 -4 16 -1 16 6 0 8 10 9 28 5 20 -4 33 -1 42 10 7 8 21 15 32 15 10 0 17 4 13 9 -5 9 32 27 48 23 4 -1 7 2 7 8 0 5 11 10 25 10 18 0 25 5 25 20 0 23 -10 26 -28 8 -10 -10 -15 -10 -22 2 -13 21 38 44 59 27 11 -9 13 -9 10 2 -3 8 -15 21 -27 29 -20 13 -22 13 -16 -2 4 -11 2 -15 -8 -11 -14 6 -18 17 -19 58 0 25 -37 13 -71 -24 -24 -25 -30 -28 -48 -17 -11 7 -20 19 -20 27 0 10 3 11 13 3 8 -7 18 -7 27 -2 13 8 12 10 -2 10 -10 0 -18 5 -18 10 0 21 -26 8 -50 -25 -29 -40 -41 -44 -32 -12 5 19 3 20 -11 9 -8 -7 -21 -12 -29 -11 -35 4 -42 -1 -25 -19 16 -17 15 -18 -13 -16 -17 1 -33 -2 -36 -7 -3 -5 -12 -5 -23 0 -13 7 -22 5 -34 -10 -9 -10 -29 -19 -44 -20 -16 0 -23 -3 -17 -5 7 -3 0 -17 -17 -35 -16 -17 -33 -28 -39 -24 -6 3 -8 11 -5 16 4 5 -2 6 -11 2 -11 -4 -13 -8 -6 -11 20 -6 13 -19 -18 -32 -16 -7 -30 -17 -30 -22 0 -6 -6 -6 -14 1 -11 9 -15 9 -19 -1 -4 -10 -8 -10 -17 2 -10 13 -11 13 -7 0 2 -8 -3 -21 -12 -28 -17 -14 -10 -14 32 3 10 4 17 3 17 -4 0 -6 -7 -11 -15 -11 -17 0 -20 -16 -5 -25 18 -11 10 -24 -17 -27 -14 -2 -29 -9 -31 -17 -3 -10 0 -12 12 -8 9 4 23 4 31 1 16 -7 21 -34 6 -34 -6 0 -20 -18 -32 -40 -13 -22 -26 -40 -31 -40 -4 0 -8 -4 -8 -10 0 -5 6 -7 14 -4 10 4 13 -5 9 -42 -2 -33 1 -52 12 -64 19 -21 17 -80 -3 -80 -12 0 -12 -3 -2 -15 10 -13 9 -15 -10 -15 -23 0 -23 4 -5 55 6 19 6 19 -8 2 -12 -14 -16 -15 -20 -5 -2 7 -2 2 0 -11 2 -13 -3 -34 -12 -47 -13 -20 -13 -27 -3 -44 7 -11 18 -20 25 -20 7 0 13 -4 13 -10 0 -5 -4 -10 -10 -10 -5 0 -10 -5 -10 -11 0 -6 7 -9 15 -6 8 4 17 2 20 -3 4 -6 12 -10 18 -10 7 0 6 4 -3 10 -12 8 -9 10 12 10 17 0 31 8 38 20 6 11 15 18 21 15 5 -4 9 -1 9 5 0 6 6 10 13 9 6 -1 23 3 37 10 23 11 23 11 3 7 -27 -5 -29 0 -8 20 8 9 19 12 25 9 6 -3 19 -3 31 0 16 5 20 14 17 38 -3 30 -1 33 42 43 28 7 46 17 48 27 5 24 21 21 31 -5 5 -15 4 -26 -3 -30 -6 -5 -1 -8 13 -8 16 0 21 -4 17 -15 -6 -17 2 -19 23 -6 8 5 24 3 40 -5 14 -8 36 -14 49 -14 14 0 22 -6 23 -17 0 -16 1 -16 8 0 6 17 9 17 26 -7 12 -16 29 -26 45 -26 14 0 31 -5 38 -12 19 -19 14 6 -5 28 -18 19 -53 88 -53 103 0 14 43 21 57 9 10 -8 13 -6 13 8 0 11 3 15 8 9 8 -13 52 -17 52 -6 0 11 55 4 79 -9 10 -5 28 -7 40 -5 23 4 129 -12 146 -23 5 -3 19 -7 31 -8 55 -6 97 -15 128 -28 18 -8 45 -12 59 -9 19 4 29 0 33 -12 5 -13 9 -14 16 -3 7 10 11 9 23 -6 7 -10 20 -16 27 -13 7 2 28 -2 47 -9 18 -8 43 -14 56 -14 12 0 25 -3 29 -7 3 -4 31 -7 62 -8 33 0 58 -6 63 -13 4 -7 28 -14 52 -16 88 -6 82 -2 76 -46 -3 -22 -3 -40 -1 -40 6 0 28 53 25 63 -1 5 8 6 19 2 11 -4 20 -2 20 4 0 18 25 13 56 -11 30 -24 54 -29 67 -13 4 6 7 1 5 -10 -3 -18 2 -20 49 -19 l52 1 -6 -28 c-3 -17 -1 -29 5 -29 6 0 12 10 14 23 3 20 9 22 69 24 l65 2 2 -36 c2 -20 5 -39 7 -43 2 -4 -6 -6 -17 -5 -12 1 -24 10 -28 20 -6 16 -7 16 -13 3 -3 -9 -3 -26 0 -38 5 -20 4 -21 -14 -11 -11 5 -24 7 -28 3 -5 -4 -5 1 -2 11 5 13 3 17 -5 15 -7 -3 -13 -11 -14 -19 -2 -35 -5 -40 -14 -34 -5 3 -10 22 -10 41 0 22 -5 34 -13 34 -9 0 -12 -10 -9 -30 3 -24 1 -30 -15 -30 -12 0 -23 -11 -30 -31 -10 -25 -16 -29 -32 -24 -26 8 -27 -3 -3 -21 16 -13 16 -15 0 -28 -10 -7 -18 -19 -18 -27 0 -12 -2 -12 -9 -1 -4 8 -11 13 -15 13 -14 -2 -15 0 -6 24 10 26 -1 34 -17 13 -12 -16 -16 -98 -5 -98 4 0 13 5 20 12 6 6 15 8 19 4 5 -4 -4 -18 -19 -30 -16 -12 -28 -27 -28 -33 0 -7 -16 -15 -36 -19 -25 -5 -32 -9 -22 -15 9 -6 6 -9 -11 -9 -16 0 -21 -4 -18 -14 4 -9 1 -13 -6 -10 -16 6 -37 61 -31 79 3 7 1 16 -5 20 -6 3 -8 17 -5 31 4 15 2 24 -5 24 -9 0 -9 5 0 21 15 29 24 224 10 215 -6 -4 -11 -18 -11 -31 0 -32 -22 -118 -33 -126 -4 -3 -4 -16 1 -30 9 -24 0 -60 -24 -89 -8 -9 -12 -43 -11 -87 2 -52 -2 -74 -11 -78 -7 -3 -11 -8 -8 -13 6 -9 -36 -8 -52 2 -6 4 -21 2 -32 -4 -16 -8 -25 -8 -35 0 -10 8 -14 8 -17 -1 -2 -6 -17 -12 -33 -13 -17 -2 -38 -6 -48 -11 -9 -4 -31 -5 -47 -3 -19 3 -29 1 -27 -6 2 -6 11 -10 21 -8 9 2 16 -2 16 -8 0 -5 -9 -10 -19 -10 -11 0 -21 -6 -23 -12 -3 -9 -9 -8 -22 5 -22 21 -22 22 -22 -5 0 -13 6 -29 14 -37 13 -13 16 -13 27 2 7 9 15 17 19 17 11 0 6 -28 -6 -34 -10 -5 -10 -7 0 -12 6 -3 12 -12 12 -20 0 -8 5 -14 10 -14 7 0 7 6 1 19 -8 14 -7 20 3 24 12 5 15 -1 18 -45 2 -28 19 -41 31 -25 6 8 10 8 13 1 2 -5 23 -9 47 -8 54 3 61 -2 37 -28 -24 -26 -17 -38 8 -15 23 21 36 22 29 3 -3 -7 2 -24 11 -37 13 -19 13 -22 1 -17 -10 4 -15 -1 -15 -13 0 -11 3 -19 7 -19 3 0 6 -18 6 -40 0 -22 -4 -37 -8 -34 -5 3 -9 1 -9 -5 0 -6 9 -15 20 -21 16 -9 18 -8 14 5 -4 9 -1 15 8 15 9 0 13 10 12 28 -1 19 3 29 12 29 8 0 14 -6 14 -14 0 -7 3 -13 6 -13 11 0 31 25 27 36 -2 6 3 11 12 11 19 0 19 -12 -1 -42 -10 -15 -12 -25 -5 -25 6 0 11 5 11 11 0 5 5 7 10 4 6 -3 10 -1 10 4 0 6 5 11 11 11 6 0 8 -7 5 -16 -10 -25 12 -46 35 -33 10 5 20 7 20 4 1 -3 3 -9 4 -15 1 -5 3 -17 4 -25 2 -23 21 -18 21 5 0 12 7 20 17 20 9 0 13 -3 10 -7 -4 -3 0 -15 10 -25 19 -22 10 -36 -12 -18 -9 7 -15 8 -15 2 0 -6 5 -12 11 -14 9 -3 9 -10 0 -26 -8 -14 -8 -22 -1 -22 5 0 10 -7 10 -16 0 -11 5 -14 16 -10 17 6 44 -9 44 -25 0 -5 -7 -9 -16 -9 -14 0 -14 -3 -4 -15 11 -13 10 -14 -2 -10 -12 5 -14 0 -10 -22 3 -15 7 -22 9 -15 5 14 33 16 33 2 0 -5 -5 -10 -11 -10 -5 0 -8 -4 -4 -9 3 -6 -3 -14 -12 -20 -10 -5 -15 -13 -11 -16 4 -4 0 -14 -8 -22 -8 -9 -12 -23 -9 -31 3 -9 3 -13 -1 -10 -9 9 -54 -46 -54 -66 0 -14 -2 -15 -14 -4 -8 7 -11 15 -7 18 20 16 27 46 16 72 l-11 27 -19 -37 c-11 -20 -26 -44 -34 -52 -13 -13 -14 -13 -7 5 14 35 12 50 -8 50 -13 0 -20 -8 -22 -28 -2 -19 1 -25 9 -21 8 5 8 3 0 -7 -19 -19 -16 -32 5 -24 13 5 14 3 5 -6 -22 -22 -36 1 -31 52 3 27 1 46 -4 43 -4 -3 -8 -21 -8 -40 0 -29 -3 -33 -22 -31 -18 3 -30 16 -45 45 -4 9 -43 -25 -39 -35 6 -16 -20 -50 -31 -39 -4 5 -2 11 5 13 14 5 17 43 2 43 -6 0 -5 10 2 25 9 19 14 22 21 13 6 -9 7 -8 3 5 -3 10 -6 21 -6 24 0 3 -10 -6 -21 -21 -12 -15 -21 -39 -21 -52 0 -16 -5 -23 -13 -21 -6 3 -20 -6 -30 -19 -12 -16 -28 -24 -48 -24 -26 0 -29 -3 -25 -24 4 -18 0 -26 -14 -30 -13 -3 -18 0 -15 8 3 8 -5 19 -18 26 -14 7 -22 17 -19 21 2 4 0 10 -5 14 -17 10 -5 -64 13 -83 18 -20 21 -42 7 -42 -6 0 -16 8 -23 18 -7 9 -25 25 -41 35 l-27 17 16 -40 c20 -48 12 -64 -11 -23 -11 20 -14 22 -10 6 4 -13 0 -25 -9 -30 -8 -4 -15 -12 -15 -18 1 -19 -20 -15 -46 10 -34 30 -38 31 -30 5 4 -12 1 -27 -5 -35 -10 -12 -14 -12 -30 3 -10 10 -24 31 -31 47 l-13 30 -4 -29 c-2 -17 2 -32 10 -37 9 -6 6 -8 -9 -6 -12 0 -19 5 -17 9 3 4 -4 8 -16 8 -12 0 -18 5 -15 10 12 19 -8 10 -31 -15 -13 -14 -26 -21 -29 -15 -3 6 -1 10 4 10 13 0 15 37 2 44 -10 7 -75 -53 -76 -68 0 -5 -6 -11 -12 -14 -18 -5 -16 28 2 48 9 10 13 25 9 34 -7 17 -24 22 -24 6 0 -5 5 -10 10 -10 6 0 10 -4 10 -10 0 -5 -7 -10 -15 -10 -8 0 -15 -4 -15 -9 0 -6 -9 -9 -20 -8 -15 1 -20 8 -20 28 0 15 -3 34 -6 43 -9 23 -62 -46 -70 -91 -6 -32 -7 -33 -25 -17 -24 21 -24 31 -1 37 11 3 7 5 -10 6 -22 1 -25 5 -21 24 5 22 5 22 -10 2 -8 -11 -13 -23 -11 -27 3 -5 0 -8 -6 -8 -6 0 -10 -6 -9 -12 3 -25 -1 -38 -11 -38 -6 0 -10 6 -9 12 1 7 1 32 0 56 -1 48 -21 59 -21 11 0 -39 -16 -70 -34 -63 -9 4 -17 -7 -24 -33 -5 -21 -10 -30 -11 -20 -1 10 -5 16 -10 12 -5 -3 -13 0 -17 6 -4 8 -3 9 4 5 7 -4 12 -3 12 2 0 6 -7 13 -16 16 -22 8 -26 8 -19 -4 10 -17 -7 -11 -20 6 -10 14 -14 13 -38 -16 -21 -25 -28 -28 -33 -16 -3 8 -2 21 2 28 6 10 4 10 -9 -1 -15 -12 -17 -11 -17 3 0 9 5 16 10 16 6 0 10 7 10 16 0 14 -2 15 -17 3 -15 -12 -16 -12 -10 4 3 9 2 17 -3 17 -6 0 -10 -7 -10 -16 0 -8 -7 -22 -15 -30 -13 -14 -15 -12 -16 18 -1 18 -1 39 0 46 2 11 -2 11 -19 2 -12 -6 -28 -9 -37 -6 -10 4 -13 2 -10 -7 3 -8 -3 -13 -14 -14 -27 -2 -32 13 -12 33 16 16 16 16 -7 9 -30 -10 -40 -10 -62 0 -13 5 -15 2 -11 -14 4 -15 1 -21 -11 -21 -9 0 -13 6 -10 13 3 10 -5 14 -31 15 -29 1 -35 -2 -35 -19 0 -20 0 -20 -22 1 -25 23 -44 26 -51 8 -2 -7 -8 -10 -12 -6 -4 4 -2 14 5 23 10 12 10 15 -4 15 -9 0 -16 -7 -16 -15 0 -8 -4 -15 -10 -15 -5 0 -10 7 -10 15 0 11 -8 13 -30 8 -16 -3 -31 -2 -31 3 -1 5 -3 22 -5 38 -5 41 -22 50 -28 14 -1 -7 -10 -26 -19 -43 -13 -22 -16 -24 -12 -7 5 19 3 22 -17 20 -21 -3 -23 1 -21 37 1 22 -1 32 -4 23 -2 -10 -13 -18 -24 -18 -10 0 -19 -5 -19 -11 0 -5 4 -7 10 -4 11 7 13 -6 4 -29 -12 -32 -24 -15 -24 34 0 48 -14 67 -26 35 -12 -30 -30 -16 -28 20 2 19 0 35 -4 35 -4 0 -22 -14 -40 -31 -18 -17 -35 -30 -37 -28 -10 11 11 62 36 89 44 45 14 36 -32 -10 -23 -23 -49 -40 -62 -40 -13 0 -29 -6 -35 -12 -10 -10 -10 -5 -1 22 7 19 16 40 21 47 5 7 5 14 0 17 -6 3 -12 -3 -15 -14 -3 -14 -10 -18 -22 -14 -9 4 -14 13 -11 20 4 10 -3 14 -20 14 -23 0 -26 4 -22 25 5 22 2 25 -24 25 -16 0 -31 -6 -34 -15 -5 -13 -9 -13 -22 -3 -13 11 -15 9 -10 -15 3 -15 2 -30 -3 -32 -10 -7 -22 51 -13 66 11 18 -58 -1 -74 -20 -12 -14 -13 -14 -8 2 3 10 3 29 0 43 -5 20 -9 22 -25 13 -16 -8 -19 -6 -19 11 0 11 -4 20 -9 20 -14 0 -20 37 -8 49 13 13 3 26 -13 16 -7 -4 -9 -18 -6 -34 6 -23 5 -24 -7 -9 -8 10 -18 14 -22 10 -4 -4 -3 3 3 15 13 23 1 33 -43 33 -21 0 -41 23 -37 43 1 4 -8 8 -20 8 -18 1 -19 2 -5 6 9 2 14 9 11 15 -4 6 0 14 7 19 7 4 11 10 8 14 -3 3 -22 -6 -42 -20 -21 -13 -37 -20 -37 -15 0 6 5 10 10 10 20 0 9 20 -20 35 -16 9 -30 21 -30 28 0 19 -40 100 -47 94 -2 -3 0 -15 7 -26 7 -14 7 -21 0 -21 -5 0 -10 -5 -10 -11 0 -5 4 -8 9 -5 5 3 11 -4 15 -17 7 -26 7 -87 -1 -69 -2 6 -8 10 -12 7 -5 -2 -6 8 -5 23 2 15 1 21 -2 15 -9 -20 -24 -15 -24 7 0 11 -4 20 -9 20 -5 0 -11 14 -15 31 -5 24 -10 30 -28 27 -19 -2 -23 1 -20 21 2 26 -15 54 -29 46 -4 -3 -13 3 -19 12 -8 15 -9 13 -4 -9 5 -23 3 -28 -12 -28 -9 0 -15 3 -11 6 3 4 0 13 -8 21 -8 8 -15 22 -15 31 1 15 2 15 14 -1 11 -14 15 -15 19 -3 3 8 -1 22 -9 33 -9 10 -13 12 -9 3 4 -8 -1 -6 -9 4 -14 17 -16 18 -16 3 0 -25 -13 -21 -37 12 -15 19 -18 32 -11 39 7 7 3 12 -12 17 -12 4 -24 4 -27 1 -4 -3 2 -6 12 -6 14 0 15 -3 6 -14 -9 -10 -6 -23 13 -57 14 -23 23 -47 20 -51 -3 -4 3 -20 13 -36 25 -36 45 -83 38 -90 -3 -3 -5 -1 -5 5 0 6 -16 30 -35 53 -19 23 -32 46 -29 51 3 5 -2 9 -10 9 -8 0 -13 6 -10 13 5 15 -31 57 -49 57 -8 0 -7 -3 2 -9 8 -5 11 -16 7 -26 -5 -14 -9 -15 -21 -5 -8 7 -15 19 -15 26 0 8 -7 14 -16 14 -8 0 -12 -4 -9 -10 3 -5 1 -10 -4 -10 -6 0 -11 7 -11 16 0 10 -6 14 -15 10 -11 -4 -15 2 -15 20 0 27 -15 60 -37 82 -7 7 -13 18 -13 23 0 13 18 11 23 -3 2 -7 4 6 3 30 0 23 -2 42 -4 42 -1 0 -7 -12 -12 -26 -6 -14 -14 -22 -20 -19 -5 3 -10 -1 -10 -11 0 -9 -8 -23 -17 -31 -17 -14 -17 -14 1 -9 14 5 17 2 12 -10 -5 -13 -2 -15 13 -11 19 5 19 4 4 -19 l-15 -24 -19 35 c-18 32 -18 37 -4 51 18 19 19 28 3 21 -10 -3 -12 8 -11 42 1 25 0 38 -3 29 -3 -10 -9 -18 -14 -18 -15 0 -22 -40 -9 -56 6 -8 9 -17 7 -20 -3 -3 -14 12 -24 34 -11 22 -30 44 -44 51 -14 6 -43 28 -65 47 -38 34 -39 36 -12 30 33 -8 35 3 3 33 -22 21 -42 65 -38 84 1 4 -5 10 -13 13 -8 3 -12 10 -9 15 3 5 -1 9 -9 9 -22 0 -14 -78 14 -137 13 -26 23 -52 24 -58 6 -42 28 -125 34 -125 3 0 17 -36 31 -80 13 -45 27 -83 32 -86 4 -3 8 -13 8 -23 0 -22 23 -71 33 -71 5 0 5 -9 2 -20 -4 -11 -2 -20 4 -20 6 0 11 -9 11 -20 0 -10 4 -29 9 -42 5 -13 12 -32 16 -43 l7 -20 8 20 c5 11 9 14 9 6 1 -8 9 -20 19 -28 16 -14 16 -14 0 -9 -26 8 -22 -7 8 -38 15 -14 23 -26 19 -26 -5 0 0 -9 10 -20 14 -15 21 -17 32 -9 18 15 23 9 30 -37 8 -49 60 -94 76 -66 2 4 2 1 1 -5 -2 -7 1 -13 7 -13 6 0 17 -7 25 -15 9 -8 26 -15 38 -15 13 0 34 -10 47 -21 13 -12 34 -28 46 -36 13 -9 23 -22 23 -29 0 -8 4 -14 8 -14 5 0 15 -11 22 -24 15 -28 46 -46 36 -21 -3 9 0 15 9 15 9 0 15 -9 15 -23 0 -18 6 -22 30 -22 30 -1 41 10 18 17 -8 3 -9 6 -1 11 6 4 25 -7 43 -23 18 -17 35 -30 39 -30 3 0 19 -11 35 -25 16 -14 34 -25 40 -25 16 -1 56 -36 56 -49 0 -6 6 -11 13 -11 23 0 121 -81 136 -113 9 -18 29 -45 46 -61 18 -17 23 -26 13 -23 -20 7 -24 -3 -7 -20 6 -6 18 -9 25 -6 8 3 14 0 14 -7 0 -9 11 -11 35 -7 33 5 49 -4 50 -27 0 -5 6 -11 13 -13 6 -3 12 1 12 7 0 13 41 3 51 -13 4 -5 12 -6 18 -3 6 4 11 3 11 -3 0 -6 6 -8 13 -5 7 2 26 -9 42 -26 16 -16 34 -30 41 -30 7 0 25 -11 41 -24 26 -21 42 -27 113 -41 42 -9 86 -23 73 -24 -41 -3 28 -43 92 -54 17 -3 37 -7 45 -9 8 -2 16 2 16 7 1 6 -2 9 -7 7 -5 -1 -9 2 -9 8 0 13 17 13 25 0 4 -6 10 -8 15 -5 4 3 13 -2 20 -10 7 -8 17 -15 23 -15 5 0 19 -11 31 -24 13 -15 36 -25 63 -29 23 -3 56 -15 74 -27 26 -19 33 -20 41 -9 7 10 8 9 3 -6 -9 -27 -13 -42 -8 -32 7 11 33 8 33 -3 0 -6 8 -10 18 -8 9 2 16 -2 15 -8 -1 -7 7 -14 17 -17 11 -3 20 -2 20 3 0 4 7 10 14 13 10 4 13 1 10 -7 -3 -8 5 -21 18 -30 29 -20 44 -21 28 -1 -19 23 -6 27 17 6 14 -13 29 -18 44 -14 23 6 23 5 -3 -16 -16 -12 -28 -27 -28 -32 0 -6 7 -3 16 5 16 17 104 20 104 4 0 -4 6 -8 13 -8 8 0 22 -9 32 -20 10 -11 26 -20 35 -20 9 0 24 -8 33 -18 15 -16 14 -17 -26 -15 -23 2 -35 0 -27 -4 8 -3 26 -14 40 -23 14 -10 48 -30 75 -45 28 -16 54 -34 58 -41 4 -8 18 -14 29 -14 27 0 108 -38 108 -51 0 -5 10 -9 21 -9 17 0 19 -3 10 -13 -14 -17 -4 -27 26 -27 14 0 21 -4 18 -10 -3 -6 3 -10 15 -10 17 0 20 -4 15 -19 -5 -15 2 -23 30 -36 19 -10 35 -24 35 -31 0 -8 9 -14 20 -14 10 0 24 -9 30 -21 14 -26 8 -34 -17 -20 -10 5 -26 12 -36 15 -13 4 -17 12 -12 26 5 15 3 18 -8 14 -8 -3 -18 -1 -22 5 -9 16 -25 13 -25 -4 0 -8 4 -15 9 -15 5 0 12 -17 16 -37 7 -39 58 -103 82 -103 7 0 31 -11 53 -25 22 -14 44 -25 49 -25 6 0 15 -9 21 -20 23 -43 -57 -130 -118 -130 -17 0 -35 -7 -39 -15 -6 -10 -30 -16 -80 -19 -122 -7 -134 -38 -19 -49 32 -3 64 -11 69 -16 8 -8 7 -11 -2 -11 -10 0 -9 -6 3 -25 15 -23 15 -26 -4 -45 -25 -25 -25 -30 0 -30 18 0 17 -2 -5 -26 -13 -14 -23 -31 -22 -37 1 -6 -9 -13 -23 -15 -37 -6 -58 -28 -52 -58 2 -14 12 -28 21 -32 18 -6 45 -41 46 -57 0 -5 6 -21 13 -34 8 -13 11 -35 8 -50 -7 -36 24 -111 47 -111 23 0 22 -17 -3 -30 -26 -14 -25 -28 3 -32 16 -2 23 -11 25 -30 2 -16 8 -28 13 -28 13 0 11 -26 -3 -51 -10 -17 -10 -23 0 -26 18 -7 16 -83 -3 -83 -8 0 -14 8 -13 18 1 9 0 28 -1 42 -3 25 -3 25 -11 -3 -5 -16 -6 -35 -3 -43 3 -8 -1 -14 -11 -14 -9 0 -16 -5 -16 -11 0 -5 4 -8 9 -4 5 3 13 1 16 -5 4 -6 15 -8 26 -5 13 5 19 2 19 -10 0 -9 -9 -19 -21 -22 -16 -4 -20 -13 -18 -37 5 -72 -1 -98 -21 -103 -25 -7 -26 -25 -1 -47 18 -16 27 -91 10 -80 -4 2 -19 -8 -33 -23 -18 -20 -22 -30 -15 -40 8 -9 3 -16 -23 -27 -18 -8 -27 -15 -20 -15 29 -2 164 72 207 114 25 25 61 51 80 59 30 13 84 46 260 161 73 48 196 152 310 263 55 54 123 115 150 137 50 39 86 71 204 184 34 34 77 69 94 77 16 9 46 31 66 49 20 19 57 50 84 70 26 20 47 40 47 44 0 5 53 55 118 112 64 57 151 137 192 179 41 41 88 84 104 95 103 72 270 230 260 246 -3 5 -27 8 -53 6 -27 -1 -47 -5 -44 -9 2 -5 -5 -8 -17 -8 -12 0 -30 -5 -41 -10 -13 -7 -19 -7 -19 0 0 5 7 10 15 10 9 0 12 6 9 15 -4 9 0 15 8 15 8 0 24 9 36 20 12 11 28 20 35 20 8 0 20 7 27 15 10 12 9 15 -4 15 -10 0 -24 -7 -32 -15 -9 -8 -20 -15 -25 -15 -15 0 -10 22 8 35 17 12 17 14 -2 36 -14 16 -16 23 -7 26 6 3 12 9 12 15 0 6 -7 8 -15 4 -8 -3 -15 -1 -15 4 0 6 14 10 30 10 33 0 38 -11 14 -34 -14 -15 -14 -16 5 -16 12 0 20 3 19 8 -1 4 2 23 6 44 6 27 14 38 32 42 19 5 24 13 24 38 l0 32 -20 -22 c-11 -12 -20 -24 -20 -26 0 -9 -34 -46 -42 -46 -13 0 -9 28 5 34 6 3 -1 4 -18 1 -16 -2 -24 -2 -17 1 6 3 12 12 12 20 0 17 -27 19 -33 2 -2 -7 -8 -9 -13 -5 -5 4 -4 11 2 15 6 4 10 35 10 70 -1 48 2 61 12 57 8 -3 16 -5 18 -5 3 0 0 -9 -6 -20 -6 -11 -9 -20 -8 -21 24 -6 46 -8 58 -3 13 5 12 7 -2 18 -15 11 -16 18 -7 46 8 21 8 34 2 39 -6 3 -10 21 -10 39 0 28 4 34 29 39 16 3 31 10 34 14 3 5 14 9 25 9 15 0 20 6 17 23 -2 17 -9 22 -30 22 -16 -1 -28 0 -28 1 0 7 63 64 67 61 3 -4 9 -47 12 -89 1 -5 6 -8 11 -8 6 0 9 12 8 27 -3 25 1 28 30 31 25 3 32 0 32 -15 0 -16 3 -15 18 5 16 21 20 22 31 8 12 -15 15 -15 26 0 9 12 19 15 39 10 21 -5 27 -3 24 6 -3 7 -17 13 -31 13 -15 0 -27 5 -28 10 -1 13 64 6 74 -9 6 -8 10 -8 14 2 2 6 14 12 25 12 17 0 18 -3 8 -15 -7 -8 -20 -15 -28 -15 -12 0 -13 -3 -4 -12 14 -14 16 -32 3 -23 -5 3 -12 1 -16 -5 -3 -5 -19 -7 -36 -3 -36 7 -69 -18 -62 -48 8 -28 27 -18 33 17 4 19 8 25 13 17 4 -7 3 -22 -3 -33 -13 -24 -7 -26 16 -3 16 16 16 16 9 -7 -4 -14 -14 -33 -22 -42 -20 -22 -8 -40 22 -32 21 5 23 3 22 -30 -1 -20 -5 -36 -9 -36 -5 0 -20 -12 -33 -26 -21 -22 -23 -23 -18 -5 3 13 1 21 -7 21 -9 0 -7 6 4 19 10 11 15 25 10 32 -10 17 -34 -17 -34 -49 0 -14 -8 -30 -17 -37 -15 -11 -15 -13 5 -19 12 -4 20 -12 16 -17 -3 -6 -1 -16 5 -23 19 -22 -13 -42 -44 -28 -24 11 -36 0 -14 -13 6 -4 -8 -25 -35 -52 -41 -40 -62 -74 -36 -58 23 14 8 -16 -27 -55 -21 -23 -38 -46 -37 -51 1 -5 2 -16 3 -24 2 -27 19 -16 97 60 42 41 80 75 83 75 4 0 20 18 37 41 16 22 50 66 75 97 26 31 56 76 68 100 12 24 31 52 42 63 21 21 89 155 89 175 0 7 4 14 8 16 7 2 75 141 78 158 0 3 6 18 12 33 7 16 12 42 12 58 0 16 4 29 8 29 4 0 12 29 18 65 12 81 3 108 -59 185 -43 53 -48 63 -42 92 9 38 22 63 53 97 12 14 22 29 22 32 0 4 17 25 38 47 20 22 48 55 62 72 27 33 130 228 130 245 0 5 23 84 51 175 61 196 101 342 130 465 11 50 25 99 29 110 8 18 15 47 40 160 5 22 18 74 30 115 33 113 60 220 69 269 10 53 43 83 77 71 13 -5 67 -12 122 -16 94 -6 101 -6 135 18 84 56 107 108 127 286 5 48 16 123 24 167 15 83 90 323 107 339 5 6 9 18 9 27 0 10 6 24 14 31 7 8 17 25 21 38 4 14 10 27 14 30 26 22 157 393 194 555 52 220 43 720 -14 826 -5 11 -6 19 -2 19 4 0 3 4 -2 8 -16 10 -35 83 -35 128 0 22 12 98 26 169 14 72 32 166 39 210 8 44 18 105 24 137 5 31 19 76 31 100 12 23 35 86 52 138 25 80 180 415 199 430 10 8 37 72 49 115 58 203 85 390 90 609 0 5 3 6 7 2 4 -4 13 22 20 56 9 46 12 139 8 346 -2 156 -6 286 -8 290 -12 21 -15 296 -4 335 4 16 22 43 40 61 83 86 100 119 91 175 -4 25 -8 49 -10 54 -1 4 -2 21 -3 38 0 17 -5 28 -11 24 -6 -4 -10 5 -10 20 0 14 -13 51 -28 83 -30 61 -42 96 -68 207 -9 39 -22 81 -30 95 -23 44 -72 164 -79 195 -8 36 -13 49 -59 145 -77 163 -120 275 -136 350 -6 30 -14 62 -17 70 -3 8 -7 20 -8 25 -12 53 -53 110 -122 171 -43 38 -125 114 -182 169 -148 143 -169 163 -248 232 -73 64 -257 193 -275 193 -31 0 -148 89 -272 208 -132 125 -144 141 -190 231 -27 53 -57 112 -67 132 -10 20 -21 55 -25 77 -14 90 -68 145 -189 192 -33 13 -94 40 -135 60 -44 22 -113 45 -165 55 -107 22 -173 46 -229 84 -39 27 -212 101 -235 101 -6 0 -11 5 -11 11 0 7 18 8 56 3 55 -6 56 -6 52 17 -3 21 -9 25 -58 29 -35 3 -49 8 -38 12 10 4 47 5 83 1 36 -3 65 -2 65 3 0 5 -33 23 -73 39 l-72 30 -330 6 c-347 7 -361 8 -630 64 -93 19 -183 35 -198 35 -16 0 -54 12 -85 26 -85 39 -263 70 -327 58z m283 -65 c28 -7 52 -15 52 -19 0 -9 -87 -20 -155 -20 -28 0 -64 -4 -81 -9 -33 -9 -119 -17 -284 -26 -106 -6 -169 -22 -232 -58 -24 -14 -56 -27 -73 -31 -33 -7 59 48 180 107 71 35 203 75 285 86 49 7 223 -10 308 -30z m1921 -11218 c-13 -18 -18 -34 -13 -42 6 -10 10 -7 15 11 7 23 7 23 8 -7 1 -17 7 -34 14 -36 8 -4 8 -8 2 -14 -14 -11 -39 -56 -27 -49 5 3 12 -8 14 -24 5 -30 -6 -41 -15 -17 -3 6 -6 2 -6 -10 -1 -13 4 -23 9 -23 7 0 7 -6 1 -19 -6 -10 -7 -21 -4 -25 3 -3 1 -6 -5 -6 -7 0 -12 -7 -12 -15 0 -8 -6 -15 -14 -15 -8 0 -23 -3 -33 -7 -17 -6 -17 -6 -1 10 9 9 22 17 29 17 7 0 4 6 -7 14 -17 13 -20 12 -31 -9 -13 -24 -34 -25 -80 -2 -24 11 -46 1 -25 -12 9 -5 8 -12 -4 -27 -15 -19 -15 -18 -11 3 3 13 1 26 -4 29 -16 9 1 24 27 24 14 0 34 5 45 10 13 7 19 7 19 0 0 -5 -5 -10 -11 -10 -5 0 -7 -5 -4 -10 4 -6 11 -8 16 -5 16 11 10 34 -12 46 -18 9 -24 8 -31 -5 -10 -18 -38 -22 -38 -6 0 6 7 10 15 10 8 0 15 5 15 10 0 6 -11 8 -25 4 -27 -7 -36 12 -10 22 22 9 18 23 -4 17 -20 -5 -37 -43 -19 -43 6 0 4 -8 -5 -18 -12 -13 -15 -28 -10 -55 5 -33 3 -37 -16 -37 -11 0 -21 5 -21 10 0 23 -19 7 -30 -25 -10 -30 -14 -33 -35 -25 -12 5 -26 6 -29 3 -3 -4 -6 -1 -6 5 0 7 5 12 11 12 6 0 8 9 4 20 -4 11 -2 20 4 20 6 0 11 -9 11 -20 0 -28 20 -25 21 3 1 12 1 25 0 29 0 4 12 5 28 3 30 -3 51 18 30 31 -6 3 -3 11 8 20 15 11 16 15 4 23 -12 8 -12 12 -2 24 10 13 9 17 -6 26 -15 8 -10 10 25 11 40 0 42 1 42 30 0 17 5 30 10 30 6 0 10 -8 10 -17 0 -13 3 -14 12 -5 9 9 10 20 2 41 -13 34 6 68 36 63 11 -2 20 2 20 7 0 6 7 11 15 11 9 0 15 -9 15 -25 0 -30 20 -33 27 -5 3 11 10 17 16 13 7 -4 8 0 4 11 -5 14 -3 17 8 12 8 -3 15 -1 15 4 0 6 5 10 10 10 6 0 1 -13 -11 -29z" fill="#5c4ff3"/>
<path d="M6033 13059 c-46 -22 -83 -45 -83 -50 0 -6 -5 -7 -10 -4 -6 3 -13 -1 -16 -9 -3 -9 -10 -14 -14 -11 -5 3 -29 -11 -54 -30 -26 -19 -50 -35 -56 -35 -5 0 -13 -6 -17 -12 -10 -16 -84 -51 -91 -44 -3 3 -11 1 -19 -6 -7 -6 -16 -8 -20 -4 -10 10 6 20 32 21 29 0 38 18 12 23 -10 2 -29 -9 -45 -26 -15 -16 -40 -32 -57 -35 -29 -7 -29 -7 -10 8 19 15 16 16 -42 12 -63 -4 -78 3 -45 22 9 6 12 11 5 11 -7 0 -22 -14 -35 -30 -13 -18 -28 -28 -37 -25 -8 3 -36 -6 -62 -20 -64 -33 -74 -32 -18 3 59 38 74 43 90 29 11 -10 11 -9 0 5 -11 14 -8 19 18 33 30 15 42 35 21 35 -5 0 -10 -3 -10 -8 0 -4 -29 -22 -64 -40 -35 -18 -69 -39 -76 -47 -7 -8 -18 -15 -25 -15 -7 0 -36 -16 -65 -35 -29 -19 -56 -35 -61 -35 -5 0 -9 -5 -9 -10 0 -6 18 -1 39 10 22 11 41 15 43 10 2 -6 13 -5 28 3 14 7 34 16 45 20 16 6 15 3 -5 -12 l-24 -19 36 -7 c22 -4 45 -2 58 5 14 7 20 8 16 1 -4 -6 4 -10 21 -8 15 0 41 -2 56 -6 19 -5 27 -4 22 3 -4 6 8 10 32 9 37 -1 37 -1 8 -9 -30 -7 -30 -7 13 -15 48 -9 58 -24 11 -17 -20 3 -30 1 -26 -6 4 -5 20 -12 37 -14 26 -4 30 -2 31 21 2 24 2 24 6 4 2 -13 11 -23 18 -23 9 0 12 6 8 17 -7 18 7 13 40 -15 9 -8 20 -12 24 -8 4 4 1 11 -6 15 -20 12 0 20 50 19 55 0 65 -6 42 -25 -17 -13 -16 -14 7 -9 14 3 52 -1 85 -9 73 -17 107 -19 85 -5 -10 6 3 7 40 3 35 -3 63 -13 78 -26 12 -11 22 -15 22 -9 0 7 -5 12 -12 12 -6 0 -8 3 -5 6 4 4 18 -1 31 -10 31 -20 46 -20 46 -1 0 8 5 15 10 15 6 0 10 -5 10 -10 0 -6 12 -8 28 -5 15 3 21 2 12 -2 -8 -5 -16 -14 -18 -22 -2 -11 0 -12 11 -3 10 9 18 8 33 -2 10 -7 30 -16 43 -19 l23 -6 -20 20 c-12 10 -29 19 -39 19 -13 0 -14 3 -5 12 8 8 15 8 26 -2 9 -7 22 -10 30 -7 10 4 13 1 9 -9 -7 -19 2 -18 22 2 9 9 19 13 23 9 4 -3 -2 -13 -12 -21 -20 -14 -16 -18 16 -15 9 1 19 -2 22 -8 4 -6 18 -6 36 -1 17 5 32 5 35 0 3 -5 19 -4 35 2 17 5 37 7 46 4 8 -3 12 -2 9 4 -3 6 -2 10 3 10 6 0 13 -12 16 -26 5 -18 10 -23 19 -16 19 15 65 23 72 13 5 -10 69 -6 86 5 5 3 9 1 9 -5 0 -6 12 -10 28 -10 15 -1 48 -1 75 -1 26 0 47 -5 47 -10 0 -6 9 -10 21 -10 13 0 18 4 13 12 -4 7 -3 8 4 4 7 -4 12 -2 12 4 0 6 5 8 10 5 12 -8 -4 -25 -40 -43 l-25 -12 28 4 c22 3 30 -1 37 -18 7 -19 9 -20 15 -3 4 10 14 16 21 13 7 -3 16 0 20 5 3 6 15 9 25 6 21 -6 26 8 7 17 -14 6 29 -4 50 -11 6 -3 12 0 12 5 0 7 11 8 32 2 19 -6 36 -6 43 0 6 5 16 5 25 0 20 -13 33 -12 25 0 -9 15 27 0 51 -22 23 -21 54 -15 54 10 0 14 1 14 13 1 20 -26 67 -50 85 -46 15 4 15 5 0 6 -10 0 -18 8 -18 16 0 8 -7 15 -15 15 -8 0 -15 5 -15 10 0 13 17 13 25 0 8 -13 74 -44 97 -45 14 -1 17 3 12 19 -3 13 5 6 22 -17 30 -41 47 -43 20 -1 -10 14 -15 28 -12 32 3 3 6 0 6 -7 0 -7 9 -9 25 -5 20 5 27 1 36 -20 7 -14 15 -26 19 -26 9 0 5 64 -5 79 -4 7 -5 15 -2 17 6 6 40 -26 54 -50 7 -13 10 -13 22 6 11 18 11 20 -2 15 -10 -4 -13 0 -10 12 3 13 12 16 36 13 27 -4 29 -6 12 -13 -11 -4 -16 -8 -11 -8 5 -1 3 -8 -4 -16 -11 -13 -10 -14 5 -8 13 4 7 -8 -18 -42 -20 -26 -37 -53 -37 -59 0 -6 9 0 19 13 10 14 31 26 46 28 24 4 25 2 15 -19 -10 -21 -10 -21 3 -5 8 9 13 33 11 52 -1 19 2 35 7 35 4 0 6 6 4 13 -3 6 4 18 16 25 25 16 37 9 20 -12 -7 -8 -8 -17 -3 -19 4 -3 13 3 20 13 7 12 8 21 2 25 -6 3 -10 11 -10 17 0 6 3 8 6 5 7 -6 54 74 54 90 0 4 -19 -12 -42 -37 -47 -51 -62 -40 -24 17 14 21 26 32 26 25 0 -7 5 -10 11 -6 8 4 7 9 -2 15 -11 7 -11 9 -1 9 7 0 10 5 7 10 -4 6 -15 -1 -28 -17 -33 -45 -36 -47 -31 -22 l6 24 -21 -25 c-22 -27 -28 -21 -10 12 7 13 7 18 1 14 -16 -10 -35 -75 -27 -94 5 -13 4 -14 -6 -5 -9 9 -10 21 -2 46 7 25 7 38 -2 50 -18 25 -21 21 -24 -30 -2 -50 -15 -78 -18 -40 -4 54 -9 77 -15 77 -13 0 -9 35 5 49 10 12 9 13 -7 7 -13 -4 -17 -2 -13 8 3 8 2 16 -3 18 -5 2 -11 23 -14 46 -8 71 -16 65 -31 -21 -7 -42 -25 -45 -36 -6 -5 17 -7 19 -8 6 -2 -31 -24 -13 -39 32 -17 50 -21 49 -24 -5 l-1 -40 -26 26 c-14 14 -25 28 -23 32 1 4 -5 5 -13 2 -8 -4 -15 -2 -15 3 0 5 -15 17 -32 28 -29 16 -31 16 -19 2 8 -10 11 -20 8 -24 -9 -9 -37 17 -37 34 0 8 -4 11 -10 8 -5 -3 -10 0 -10 7 0 9 -2 10 -8 2 -9 -15 -57 -12 -58 4 -3 25 -5 27 -13 13 -8 -13 -17 -13 -66 -1 -42 10 -58 11 -64 2 -5 -8 -17 -8 -46 3 -35 12 -42 11 -58 -3 -15 -13 -20 -14 -27 -3 -7 12 -13 12 -39 1 -18 -7 -34 -10 -38 -6 -3 3 1 6 10 6 9 0 17 4 17 9 0 4 -18 5 -40 1 -22 -4 -37 -4 -35 1 3 4 0 11 -6 15 -6 3 -15 0 -20 -7 -7 -12 -9 -12 -9 0 0 11 -3 11 -15 1 -11 -9 -15 -9 -15 -1 0 7 -5 9 -11 6 -6 -4 -16 1 -23 10 -10 14 -18 15 -50 7 -21 -6 -45 -8 -53 -5 -14 5 -13 8 3 20 13 9 14 13 3 13 -20 -1 -50 -26 -41 -35 4 -5 1 -5 -6 -1 -11 6 -8 13 9 32 28 30 11 31 -27 2 -40 -32 -87 -47 -101 -33 -13 14 10 37 30 29 8 -3 17 1 20 9 6 15 -21 19 -39 5 -6 -4 -18 -6 -26 -3 -8 3 -23 -3 -33 -15 -10 -11 -25 -20 -34 -20 -14 1 -14 2 2 14 23 18 21 25 -5 20 l-23 -5 23 10 c12 6 22 15 22 21 0 5 6 10 14 10 8 0 24 9 37 19 l24 19 -28 -5 c-15 -3 -27 -8 -27 -12 0 -3 -16 -15 -35 -25 -19 -11 -35 -25 -35 -31 0 -15 -38 -27 -46 -14 -3 5 2 9 10 9 8 0 17 4 20 9 4 5 -9 9 -26 8 -22 -1 -38 5 -49 18 -16 18 -16 20 0 32 14 11 10 13 -24 11 -37 -3 -40 -1 -38 22 2 23 1 24 -8 4 -8 -14 -20 -20 -47 -21 -20 0 -31 2 -24 4 6 3 10 9 7 13 -7 11 -95 -19 -95 -32 0 -5 -5 -6 -11 -2 -7 4 3 16 27 30 62 38 17 27 -73 -17z" fill="#5c4ff3"/>
<path d="M6679 12491 c12 -8 11 -12 -3 -27 -10 -10 -21 -13 -24 -8 -10 14 -31 11 -41 -4 -12 -20 -49 -23 -47 -4 1 11 -8 18 -24 19 l-25 2 25 -8 25 -7 -24 -13 c-15 -8 -44 -12 -77 -9 -31 3 -55 0 -57 -6 -2 -5 -46 -10 -104 -11 -55 -1 -104 -5 -110 -8 -5 -3 -47 -9 -94 -12 -46 -4 -88 -9 -92 -12 -4 -3 -43 -11 -85 -18 -109 -19 -177 -40 -207 -63 -14 -12 -34 -18 -45 -15 -13 4 -20 0 -20 -10 0 -8 -8 -21 -17 -28 -11 -10 -14 -10 -9 -1 4 6 3 12 -2 12 -5 0 -14 -11 -20 -25 -8 -17 -20 -25 -36 -25 -13 0 -29 -6 -35 -14 -10 -12 -8 -13 11 -9 23 5 23 5 3 -10 -11 -8 -23 -13 -27 -11 -5 3 -8 0 -8 -5 0 -6 5 -11 12 -11 6 0 -5 -16 -25 -35 -20 -19 -32 -37 -27 -40 12 -7 104 49 160 98 60 52 178 124 239 147 131 48 349 73 524 60 12 -1 17 -10 17 -31 0 -16 -4 -29 -10 -29 -5 0 -7 6 -4 14 3 8 0 17 -7 22 -8 4 -10 3 -5 -4 9 -15 1 -15 -27 0 -20 10 -21 10 -8 -5 11 -14 11 -20 1 -32 -15 -18 -40 -20 -40 -3 0 6 -7 5 -18 -5 -14 -13 -21 -14 -31 -4 -8 8 -14 8 -19 2 -11 -16 -60 -35 -90 -35 -15 0 -42 -9 -60 -20 -18 -11 -37 -18 -43 -15 -5 4 -9 2 -9 -3 0 -6 -22 -16 -50 -23 -27 -7 -47 -16 -44 -21 3 -4 -2 -8 -10 -8 -9 0 -16 -4 -16 -10 0 -5 -7 -10 -15 -10 -8 0 -15 -4 -15 -8 0 -5 -25 -15 -56 -22 -31 -8 -58 -20 -61 -27 -3 -8 -15 -11 -32 -7 -21 5 -23 3 -11 -6 12 -9 10 -10 -12 -6 -16 4 -28 2 -28 -4 0 -5 -8 -10 -17 -11 -15 0 -15 -2 2 -8 19 -8 19 -8 -5 -16 -14 -4 -38 -8 -53 -7 -22 1 -26 -2 -18 -12 6 -7 7 -16 3 -21 -4 -4 5 -5 21 -3 24 5 27 2 27 -21 0 -17 -3 -22 -8 -13 -10 14 -42 6 -42 -11 0 -6 3 -7 7 -4 3 4 13 -2 20 -13 13 -18 13 -24 -1 -45 -21 -32 -6 -32 31 -1 34 28 140 50 160 32 33 -29 40 -32 58 -25 20 7 20 8 0 9 -17 2 -16 3 5 9 14 4 27 5 30 1 6 -7 33 -10 107 -11 29 -1 50 -5 47 -10 -3 -5 3 -8 13 -7 41 3 63 -3 88 -26 17 -16 24 -30 19 -38 -4 -7 2 -4 14 6 17 14 19 22 11 32 -6 8 -16 11 -23 8 -6 -3 -2 2 9 11 22 19 106 16 113 -4 2 -6 11 -11 20 -10 11 0 12 2 5 6 -7 2 -13 9 -13 15 0 6 6 8 14 5 7 -3 30 -2 49 3 29 6 39 4 53 -11 15 -17 15 -19 0 -35 -9 -9 -20 -13 -24 -9 -4 4 -1 10 6 12 6 3 12 12 12 20 0 13 -2 13 -17 2 -14 -11 -15 -11 -9 -1 6 10 3 13 -10 10 -11 -2 -19 -8 -19 -13 0 -6 -4 -15 -8 -22 -4 -7 2 -18 15 -27 l22 -16 -22 0 c-13 0 -22 -6 -22 -15 0 -8 5 -15 10 -15 6 0 11 -10 11 -22 1 -21 2 -21 6 -3 8 32 24 48 37 35 13 -13 73 -13 81 -1 3 6 -3 14 -12 20 -10 6 -13 11 -7 11 6 0 19 -9 30 -21 10 -12 35 -30 56 -40 20 -10 38 -24 41 -31 4 -10 6 -10 6 0 1 6 -8 21 -20 33 -16 16 -18 24 -10 32 9 9 14 9 19 1 4 -6 17 -14 29 -18 15 -5 20 -13 18 -26 -2 -11 2 -20 9 -20 6 0 12 -12 12 -26 0 -19 -4 -24 -18 -21 -10 3 -16 2 -13 -3 6 -9 -19 -20 -47 -20 -13 0 -18 -5 -15 -14 7 -18 -32 -13 -46 6 -6 9 -7 8 -3 -4 4 -13 -2 -20 -22 -25 -15 -4 -32 -6 -39 -5 -6 1 -14 -2 -18 -8 -3 -5 -13 -10 -21 -10 -15 0 -55 -35 -48 -42 2 -3 -10 -5 -26 -5 -17 0 -30 4 -30 8 0 4 -9 5 -20 2 -12 -3 -18 -8 -15 -11 3 -3 -5 -12 -17 -18 -21 -12 -20 -13 19 -11 23 1 40 4 38 7 -2 3 25 6 58 7 120 3 182 10 203 21 11 6 29 11 40 11 10 0 37 5 59 11 22 6 60 15 84 19 23 5 47 14 51 22 5 7 12 10 16 6 4 -4 12 -3 18 2 6 5 30 14 54 20 23 7 42 16 42 21 0 6 7 10 15 10 9 0 12 6 9 15 -4 11 1 15 17 15 28 1 62 24 51 34 -4 4 7 5 23 2 21 -5 24 -4 10 2 -19 9 -19 9 0 21 18 11 16 12 -13 7 -23 -4 -31 -2 -26 6 5 7 3 8 -5 4 -7 -5 -18 -1 -24 7 -7 8 -21 18 -33 21 -17 5 -20 2 -20 -16 1 -15 -4 -22 -13 -20 -8 2 -18 -3 -22 -10 -7 -10 -9 -8 -9 5 0 10 10 31 22 47 16 22 27 28 41 24 15 -5 19 -3 14 9 -4 11 -2 14 9 10 8 -3 13 -12 10 -19 -3 -8 -1 -14 4 -14 6 0 10 7 10 16 0 8 4 13 9 10 5 -3 14 1 21 9 13 16 40 20 40 7 0 -5 6 -9 13 -10 6 0 24 -3 40 -5 15 -2 30 0 33 4 3 5 -7 9 -23 10 -16 0 -22 3 -13 6 22 9 30 25 24 48 -5 19 -4 19 9 3 19 -24 47 -24 40 0 -4 16 2 19 39 20 34 1 39 -1 26 -9 -24 -14 -23 -28 2 -22 18 5 24 17 23 51 -1 8 6 10 17 7 10 -3 21 -1 24 4 4 6 14 7 23 4 13 -5 15 -3 8 13 -5 10 -9 30 -9 44 0 14 -7 31 -16 38 -13 11 -12 12 7 7 18 -5 22 -3 17 9 -4 10 -18 16 -36 16 -16 0 -27 4 -24 9 3 5 -1 12 -10 15 -8 3 -12 11 -9 16 5 8 11 7 21 -1 8 -6 18 -9 22 -5 4 4 -1 12 -11 18 -14 8 -16 13 -6 24 8 10 9 14 0 14 -6 0 -15 -8 -18 -17 -10 -28 -26 -33 -40 -15 -7 9 -12 22 -13 27 0 6 4 4 9 -4 11 -18 41 -7 41 15 0 10 -5 14 -14 11 -8 -3 -17 1 -20 10 -5 13 -9 13 -23 2 -15 -12 -16 -12 -10 4 4 10 3 26 -2 36 -12 22 26 51 40 30 4 -8 11 -10 15 -6 10 10 -27 36 -43 30 -7 -3 -13 0 -13 6 0 6 5 11 10 11 15 0 7 23 -14 39 -13 10 -20 10 -25 3 -7 -12 -60 10 -72 30 -4 6 -18 12 -31 14 -42 4 -43 6 -13 19 l30 14 -32 1 c-17 0 -34 -4 -37 -8 -7 -12 -70 -14 -97 -3 -14 6 -18 10 -9 11 8 1 -7 7 -35 14 -57 14 -67 12 -39 -9 17 -13 14 -13 -28 -1 -44 13 -50 13 -73 -6 -17 -14 -29 -16 -42 -10 -10 5 -24 7 -30 5 -7 -3 -13 0 -13 6 0 6 5 11 11 11 8 0 8 5 -1 15 -7 8 -18 15 -24 15 -6 0 -5 -4 3 -9z m-603 -469 c8 -18 14 -41 14 -52 0 -10 6 -21 13 -24 26 -11 -81 6 -147 25 -72 19 -89 29 -68 36 6 3 10 8 7 13 -7 11 26 38 87 70 l53 29 14 -32 c7 -18 20 -47 27 -65z m640 68 c15 0 24 -6 24 -15 0 -8 6 -14 13 -12 6 1 11 -4 10 -10 -2 -7 2 -13 7 -13 6 0 10 -7 10 -15 0 -8 6 -15 14 -15 11 0 12 -5 3 -24 -10 -20 -21 -24 -77 -30 -115 -11 -110 -13 -93 37 8 23 19 46 24 52 5 5 9 20 9 33 0 18 4 23 16 18 9 -3 27 -6 40 -6z" fill="#5c4ff3"/>
<path d="M3263 12045 c-21 -15 -108 -125 -147 -186 -51 -80 -95 -236 -97 -344 -1 -44 -6 -91 -11 -105 -5 -13 -6 -21 -1 -16 4 4 13 -43 20 -106 6 -62 21 -153 33 -203 11 -49 25 -127 30 -173 15 -126 72 -328 91 -317 7 5 -9 83 -21 100 -21 30 -17 313 6 409 9 39 21 79 25 88 16 31 22 102 20 242 -2 148 8 199 55 277 12 20 27 52 32 72 6 21 24 59 40 85 16 26 32 59 36 75 7 28 40 39 48 15 2 -6 10 -8 16 -4 17 10 9 20 -50 66 -54 43 -89 50 -125 25z" fill="#5c4ff3"/>
<path d="M3747 11245 c-32 -19 -67 -44 -79 -55 -12 -11 -29 -20 -38 -20 -9 0 -31 -16 -50 -35 -19 -20 -40 -33 -48 -30 -10 4 -12 0 -8 -12 4 -10 4 -14 0 -11 -4 4 -18 -2 -32 -12 -13 -11 -31 -20 -38 -20 -8 0 -14 -7 -14 -15 0 -8 -7 -15 -15 -15 -8 0 -15 -4 -15 -10 0 -5 -7 -10 -16 -10 -12 0 -15 -6 -11 -22 3 -12 2 -29 -4 -39 -24 -45 -27 -227 -4 -262 8 -12 21 -41 29 -63 8 -22 37 -72 65 -111 66 -91 101 -108 206 -101 41 3 78 8 81 11 4 3 -5 16 -18 29 -14 13 -28 33 -32 46 -4 12 -11 22 -14 22 -4 0 -8 38 -8 85 0 47 4 85 9 85 4 0 6 9 2 19 -4 13 8 47 31 93 20 40 42 84 48 98 6 14 13 27 16 30 17 17 60 80 60 89 0 6 14 33 30 60 29 46 30 52 20 98 -22 102 -29 113 -63 113 -19 0 -56 -15 -90 -35z" fill="#5c4ff3"/>
<path d="M3261 10403 c2 -4 24 -45 48 -91 55 -104 121 -172 167 -172 63 0 51 25 -64 140 -96 95 -162 149 -151 123z" fill="#5c4ff3"/>
<path d="M3815 10380 c-6 -10 10 -31 65 -87 38 -38 114 -72 135 -61 9 6 23 11 31 12 8 1 14 6 13 12 -2 12 -42 54 -52 54 -5 0 -34 15 -65 33 -32 19 -62 32 -69 30 -6 -2 -14 1 -18 6 -8 14 -32 14 -40 1z" fill="#5c4ff3"/>
<path d="M7610 10327 c-3 -2 -39 -8 -80 -11 -41 -4 -97 -17 -125 -28 -27 -11 -62 -25 -77 -31 -15 -7 -30 -22 -33 -34 -3 -13 -12 -23 -20 -23 -8 0 -15 -5 -15 -11 0 -6 7 -9 15 -5 13 4 13 2 5 -14 -9 -17 -7 -18 18 -14 26 4 26 4 7 -12 -19 -15 -17 -16 30 -9 28 4 55 10 60 15 6 4 82 7 171 7 176 0 354 19 354 38 0 52 -128 124 -235 132 -38 3 -72 3 -75 0z" fill="#5c4ff3"/>
<path d="M4201 10046 c-7 -8 -12 -34 -12 -58 -1 -91 -2 -108 -10 -108 -5 0 -9 -11 -9 -23 0 -28 -49 -100 -93 -138 -36 -30 -31 -44 20 -52 81 -13 148 -92 161 -189 5 -39 5 -40 17 -17 10 19 10 51 1 144 -6 66 -14 125 -19 132 -4 6 -6 54 -5 105 2 90 -15 202 -32 213 -4 3 -13 -2 -19 -9z" fill="#5c4ff3"/>
<path d="M4540 7296 c-16 -25 -30 -49 -30 -55 0 -6 -3 -11 -8 -11 -4 0 -13 -13 -20 -28 -6 -15 -24 -44 -39 -63 -37 -45 -306 -312 -390 -386 -36 -32 -172 -163 -302 -291 -130 -129 -263 -257 -296 -285 -33 -28 -107 -97 -165 -153 -331 -319 -439 -397 -645 -464 -38 -13 -108 -41 -155 -63 -133 -61 -302 -121 -445 -157 -309 -78 -406 -105 -525 -146 -74 -25 -236 -72 -360 -104 -124 -32 -265 -72 -314 -90 -48 -17 -116 -37 -150 -44 -118 -26 -247 -65 -304 -91 -31 -15 -84 -35 -117 -45 -33 -10 -91 -31 -130 -48 -93 -40 -114 -48 -135 -51 -7 -1 -10 -795 -10 -2361 l0 -2360 2480 0 2480 0 0 20 c0 12 -9 76 -20 143 -10 67 -28 192 -40 277 -11 85 -25 180 -30 210 -5 30 -11 80 -15 110 -3 30 -12 105 -20 165 -25 183 -102 826 -125 1035 -21 197 -51 449 -66 560 -8 63 -22 171 -29 240 -23 206 -44 376 -70 550 -75 503 -104 766 -111 995 l-5 170 20 -60 c10 -33 23 -80 29 -105 l10 -45 1 36 c0 19 -9 69 -20 110 -34 119 -57 670 -61 1469 -3 501 -2 519 42 800 28 177 35 212 65 310 29 98 36 124 55 210 33 146 24 174 -30 96z" fill="#5c4ff3"/>
<path d="M10250 7097 c0 -2 13 -43 29 -93 48 -147 53 -214 57 -679 2 -236 7 -518 10 -625 10 -272 10 -350 1 -465 -4 -55 -9 -129 -11 -165 -4 -58 -16 -104 -46 -175 -5 -11 -22 -58 -38 -105 -17 -47 -55 -154 -86 -239 -32 -84 -55 -158 -53 -165 2 -6 12 14 22 44 10 30 21 60 25 65 4 6 15 35 25 65 10 30 21 60 25 65 4 6 17 37 29 70 21 55 106 233 117 244 9 9 -7 -211 -22 -310 -8 -53 -17 -152 -20 -220 -3 -68 -10 -153 -15 -189 -5 -36 -16 -171 -24 -300 -37 -569 -45 -681 -54 -780 -6 -58 -13 -150 -16 -205 -4 -55 -13 -129 -20 -165 -8 -36 -16 -99 -20 -140 -18 -226 -107 -996 -126 -1092 -6 -29 -19 -125 -29 -213 -20 -168 -112 -824 -129 -910 -5 -27 -14 -95 -21 -150 -6 -55 -15 -116 -20 -135 -4 -19 -11 -56 -15 -82 l-6 -48 2820 0 2821 0 0 2404 0 2404 -22 5 c-13 3 -50 8 -83 12 -102 11 -271 46 -475 100 -30 8 -90 21 -132 30 -42 8 -125 34 -185 56 -59 22 -139 49 -178 59 -123 33 -307 87 -420 125 -60 19 -150 47 -200 61 -49 14 -169 51 -265 84 -96 32 -217 68 -269 79 -51 11 -126 32 -165 45 -114 39 -262 74 -388 91 -114 16 -161 27 -403 100 -66 20 -174 52 -240 71 -66 19 -136 43 -155 53 -43 23 -175 74 -250 95 -30 9 -73 29 -95 46 -22 16 -67 48 -99 71 -33 23 -85 66 -116 94 -31 29 -80 67 -108 86 -29 18 -52 37 -52 41 0 4 -24 25 -52 47 -53 39 -93 77 -290 277 -85 86 -124 118 -184 149 -42 21 -79 46 -82 55 -3 8 -14 24 -25 35 -10 11 -28 36 -39 55 -20 33 -54 76 -116 146 -15 17 -44 52 -66 77 -31 39 -56 58 -56 44z" fill="#5c4ff3"/>
<path d="M6928 4361 c-23 -19 -235 -149 -351 -216 -151 -87 -274 -173 -386 -269 -111 -95 -145 -131 -219 -225 -69 -87 -242 -290 -288 -336 -85 -86 -187 -216 -176 -227 14 -14 33 -1 25 17 -3 10 1 15 13 13 36 -3 55 2 49 12 -3 6 1 10 10 10 8 0 20 10 25 23 5 12 9 16 9 8 1 -9 14 -1 35 20 24 24 56 41 109 57 l75 23 40 -20 c40 -20 106 -92 132 -145 8 -16 33 -42 55 -58 83 -59 155 -124 155 -141 0 -12 102 -106 115 -107 9 -1 44 -44 80 -98 6 -8 18 -24 29 -35 27 -29 22 -78 -63 -577 -69 -412 -82 -526 -126 -1088 -8 -108 -17 -204 -20 -212 -16 -53 -75 -652 -75 -767 l0 -23 1193 0 1194 0 -12 83 c-34 231 -85 494 -133 692 -78 319 -237 797 -317 955 -14 28 -46 106 -70 172 -44 119 -45 124 -45 247 -1 77 -7 151 -16 191 -27 114 -28 123 -12 134 18 13 55 80 91 164 15 34 36 72 47 84 11 12 20 28 20 36 0 8 6 12 14 9 10 -4 13 -1 10 8 -3 8 3 27 13 42 11 15 37 62 58 103 21 41 46 86 55 100 9 14 32 48 49 75 18 28 29 39 26 26 -5 -16 -4 -21 4 -17 6 4 11 20 11 35 0 16 7 34 15 41 18 15 20 -1 3 -19 -15 -15 10 -6 83 28 33 16 53 19 70 13 13 -4 80 -7 149 -7 78 1 130 -2 139 -9 8 -6 15 -9 17 -6 2 3 15 -10 29 -29 14 -19 25 -28 25 -21 0 8 16 -9 35 -39 19 -29 35 -57 35 -62 0 -6 5 -7 12 -3 8 5 9 2 5 -10 -4 -10 -1 -19 9 -23 8 -3 13 -11 10 -18 -2 -7 9 -27 25 -44 16 -18 29 -37 29 -42 0 -6 5 -7 10 -4 6 3 10 -1 10 -10 0 -9 5 -13 10 -10 6 3 10 0 10 -7 1 -7 15 -29 31 -48 78 -89 -27 99 -120 215 -31 39 -76 97 -101 130 -65 87 -180 227 -265 325 -40 47 -96 116 -124 153 -66 88 -105 131 -222 244 -109 106 -138 128 -299 238 -63 43 -131 90 -150 105 -19 15 -74 50 -121 79 -89 53 -137 66 -124 34 20 -49 19 -56 -6 -48 -13 4 -27 13 -31 19 -5 7 -19 7 -50 -2 -187 -56 -169 -54 -372 -43 -104 6 -191 13 -193 15 -15 15 54 25 191 29 160 5 230 17 97 17 -78 0 -181 22 -215 46 -28 19 -59 18 -88 -5z" fill="#5c4ff3"/>
</g>
</svg>